<?xml version="1.0" encoding="UTF-8"?>
<!DOCTYPE svg PUBLIC "-//W3C//DTD SVG 1.1//EN" "http://www.w3.org/Graphics/SVG/1.1/DTD/svg11.dtd">
<svg xmlns="http://www.w3.org/2000/svg" version="1.1" width="539px" height="463px" style="shape-rendering:geometricPrecision; text-rendering:geometricPrecision; image-rendering:optimizeQuality; fill-rule:evenodd; clip-rule:evenodd" xmlns:xlink="http://www.w3.org/1999/xlink">
<g><path style="opacity:0.989" fill="#050505" d="M 357.5,208.5 C 355.926,210.102 355.259,212.102 355.5,214.5C 356.484,223.632 354.984,232.299 351,240.5C 349.127,242.709 346.96,244.542 344.5,246C 336.19,249.488 328.19,253.488 320.5,258C 314.81,264.688 308.81,271.022 302.5,277C 298.747,278.989 294.747,279.822 290.5,279.5C 287.781,278.087 284.781,277.42 281.5,277.5C 276.095,276.932 270.762,275.932 265.5,274.5C 254.705,277.786 243.705,279.286 232.5,279C 223.573,273.741 216.24,266.741 210.5,258C 200.399,253.199 190.566,248.033 181,242.5C 178.566,239.205 176.899,235.538 176,231.5C 175.599,223.444 174.765,215.444 173.5,207.5C 173.715,205.821 173.048,204.821 171.5,204.5C 170.833,203.167 170.167,201.833 169.5,200.5C 169.715,198.821 169.048,197.821 167.5,197.5C 162.853,191.953 160.186,185.453 159.5,178C 161.211,169.409 164.711,161.575 170,154.5C 172.121,150.947 173.621,147.28 174.5,143.5C 176.213,138.211 177.213,132.544 177.5,126.5C 177.137,125.817 176.804,125.15 176.5,124.5C 177.405,117.998 180.738,113.332 186.5,110.5C 188.027,110.573 189.027,109.906 189.5,108.5C 195.817,106.353 201.817,103.519 207.5,100C 214.143,93.6887 220.476,87.022 226.5,80C 232.114,76.7914 238.114,75.7914 244.5,77C 251.352,79.031 258.352,80.1976 265.5,80.5C 274.422,79.6155 283.255,78.2821 292,76.5C 296.67,76.3346 300.836,77.6679 304.5,80.5C 310.283,86.5718 315.95,92.7384 321.5,99C 328.279,102.774 335.279,106.108 342.5,109C 347.333,111.167 350.833,114.667 353,119.5C 354.667,129.838 356.333,140.172 358,150.5C 364.302,158.796 368.802,167.963 371.5,178C 370.901,181.229 370.068,184.396 369,187.5C 364.634,194.234 360.801,201.234 357.5,208.5 Z M 290.5,139.5 C 290.973,140.906 291.973,141.573 293.5,141.5C 296.637,144.299 298.971,147.632 300.5,151.5C 300.989,152.995 301.655,154.329 302.5,155.5C 301.534,170.642 293.534,179.809 278.5,183C 277.978,183.561 277.645,184.228 277.5,185C 287.351,195.853 296.851,207.019 306,218.5C 308.83,221.188 311.996,223.188 315.5,224.5C 316.11,225.391 316.443,226.391 316.5,227.5C 312.167,227.5 307.833,227.5 303.5,227.5C 303.5,227.167 303.5,226.833 303.5,226.5C 304.675,226.719 305.675,226.386 306.5,225.5C 306.376,224.893 306.043,224.56 305.5,224.5C 304.71,223.599 303.71,222.932 302.5,222.5C 292.461,212.625 283.295,201.958 275,190.5C 272.669,186.971 269.503,184.971 265.5,184.5C 263.653,183.427 261.653,183.427 259.5,184.5C 257.459,184.146 255.626,184.146 254,184.5C 253.536,183.906 253.369,183.239 253.5,182.5C 259.739,182.724 265.739,182.057 271.5,180.5C 283.939,181.925 291.106,176.258 293,163.5C 293.796,157.995 293.129,152.662 291,147.5C 289.669,145.004 287.836,143.004 285.5,141.5C 283.017,137.533 279.517,136.533 275,138.5C 273.151,137.439 271.151,136.773 269,136.5C 267,137.833 265,137.833 263,136.5C 259.115,136.865 255.449,137.865 252,139.5C 251.138,141.087 250.471,142.754 250,144.5C 249.41,150.493 248.91,156.493 248.5,162.5C 249.022,167.978 249.022,173.478 248.5,179C 248.808,180.459 249.475,181.626 250.5,182.5C 249.775,184.947 249.108,187.447 248.5,190C 249.455,198.124 249.788,206.29 249.5,214.5C 249.171,217.228 249.837,219.562 251.5,221.5C 252.058,222.79 253.058,223.623 254.5,224C 257.833,224.667 261.167,225.333 264.5,226C 263.956,226.717 263.289,227.217 262.5,227.5C 248.484,227.833 234.484,227.499 220.5,226.5C 222.631,225.831 224.631,225.165 226.5,224.5C 228.144,224.714 229.644,224.38 231,223.5C 232.067,225.283 233.567,225.783 235.5,225C 238.232,224.602 240.065,223.102 241,220.5C 241.823,194.428 241.657,168.428 240.5,142.5C 239.658,138.893 237.325,136.893 233.5,136.5C 232.287,136.747 231.62,137.414 231.5,138.5C 228.197,137.697 225.197,137.03 222.5,136.5C 237.715,135.43 252.548,134.764 267,134.5C 275.072,135.105 282.905,136.771 290.5,139.5 Z"/></g>
<g><path style="opacity:0.306" fill="#777777" d="M 189.5,108.5 C 189.027,109.906 188.027,110.573 186.5,110.5C 186.973,109.094 187.973,108.427 189.5,108.5 Z"/></g>
<g><path style="opacity:0.964" fill="#0b0a0b" d="M 285.5,141.5 C 285.634,143.292 285.301,144.958 284.5,146.5C 282.497,143.312 279.83,141.145 276.5,140C 280.15,142.809 282.817,146.309 284.5,150.5C 284.5,150.833 284.5,151.167 284.5,151.5C 284.586,155.857 284.92,160.19 285.5,164.5C 285.5,164.833 285.5,165.167 285.5,165.5C 284.596,166.209 284.263,167.209 284.5,168.5C 284.5,168.833 284.5,169.167 284.5,169.5C 283.248,171.001 282.248,172.668 281.5,174.5C 278.5,177.17 275.167,179.17 271.5,180.5C 265.739,182.057 259.739,182.724 253.5,182.5C 252.5,182.5 251.5,182.5 250.5,182.5C 249.475,181.626 248.808,180.459 248.5,179C 249.022,173.478 249.022,167.978 248.5,162.5C 248.91,156.493 249.41,150.493 250,144.5C 250.471,142.754 251.138,141.087 252,139.5C 255.449,137.865 259.115,136.865 263,136.5C 265,137.833 267,137.833 269,136.5C 271.151,136.773 273.151,137.439 275,138.5C 279.517,136.533 283.017,137.533 285.5,141.5 Z"/></g>
<g><path style="opacity:0.69" fill="#42413f" d="M 176.5,124.5 C 176.804,125.15 177.137,125.817 177.5,126.5C 177.213,132.544 176.213,138.211 174.5,143.5C 174.868,136.992 175.535,130.658 176.5,124.5 Z"/></g>
<g><path style="opacity:0.912" fill="#2d2d2d" d="M 240.5,142.5 C 238.914,141.587 237.414,141.587 236,142.5C 235.383,141.551 235.549,140.718 236.5,140C 235.975,139.308 235.308,138.808 234.5,138.5C 234.002,139.603 233.669,140.603 233.5,141.5C 232.081,140.995 231.415,139.995 231.5,138.5C 231.62,137.414 232.287,136.747 233.5,136.5C 237.325,136.893 239.658,138.893 240.5,142.5 Z"/></g>
<g><path style="opacity:0.231" fill="#7f7f7f" d="M 290.5,139.5 C 292.027,139.427 293.027,140.094 293.5,141.5C 291.973,141.573 290.973,140.906 290.5,139.5 Z"/></g>
<g><path style="opacity:0.008" fill="#8a8a8a" d="M 284.5,146.5 C 284.833,147.833 285.167,149.167 285.5,150.5C 285.167,150.5 284.833,150.5 284.5,150.5C 282.817,146.309 280.15,142.809 276.5,140C 279.83,141.145 282.497,143.312 284.5,146.5 Z"/></g>
<g><path style="opacity:0.908" fill="#242424" d="M 285.5,141.5 C 287.836,143.004 289.669,145.004 291,147.5C 293.129,152.662 293.796,157.995 293,163.5C 291.106,176.258 283.939,181.925 271.5,180.5C 275.167,179.17 278.5,177.17 281.5,174.5C 283.531,173.461 284.864,171.795 285.5,169.5C 285.5,168.833 285.167,168.5 284.5,168.5C 284.263,167.209 284.596,166.209 285.5,165.5C 286.644,166.183 286.644,165.849 285.5,164.5C 284.92,160.19 284.586,155.857 284.5,151.5C 285.167,151.5 285.5,151.167 285.5,150.5C 285.167,149.167 284.833,147.833 284.5,146.5C 285.301,144.958 285.634,143.292 285.5,141.5 Z"/></g>
<g><path style="opacity:0.133" fill="#7c7c7c" d="M 300.5,151.5 C 302.176,152.183 302.843,153.517 302.5,155.5C 301.655,154.329 300.989,152.995 300.5,151.5 Z"/></g>
<g><path style="opacity:0.114" fill="#888888" d="M 284.5,169.5 C 284.833,169.5 285.167,169.5 285.5,169.5C 284.864,171.795 283.531,173.461 281.5,174.5C 282.248,172.668 283.248,171.001 284.5,169.5 Z"/></g>
<g><path style="opacity:0.051" fill="#858587" d="M 265.5,184.5 C 262.147,184.345 261.814,185.012 264.5,186.5C 264.44,187.043 264.107,187.376 263.5,187.5C 262.099,186.479 260.765,185.479 259.5,184.5C 261.653,183.427 263.653,183.427 265.5,184.5 Z"/></g>
<g><path style="opacity:0.914" fill="#161616" d="M 265.5,184.5 C 269.503,184.971 272.669,186.971 275,190.5C 283.295,201.958 292.461,212.625 302.5,222.5C 302.821,224.048 303.821,224.715 305.5,224.5C 306.043,224.56 306.376,224.893 306.5,225.5C 305.675,226.386 304.675,226.719 303.5,226.5C 296.53,224.011 290.53,220.011 285.5,214.5C 284.92,212.251 283.587,210.585 281.5,209.5C 281.262,207.596 280.262,206.262 278.5,205.5C 277.92,203.251 276.587,201.585 274.5,200.5C 273.833,200.5 273.5,200.167 273.5,199.5C 273.573,197.973 272.906,196.973 271.5,196.5C 269.86,193.851 268.193,191.184 266.5,188.5C 266.167,187.5 265.5,186.833 264.5,186.5C 261.814,185.012 262.147,184.345 265.5,184.5 Z"/></g>
<g><path style="opacity:0.133" fill="#6b6b6b" d="M 266.5,188.5 C 268.193,191.184 269.86,193.851 271.5,196.5C 268.666,194.498 266.333,191.998 264.5,189C 265.094,188.536 265.761,188.369 266.5,188.5 Z"/></g>
<g><path style="opacity:0.255" fill="#828282" d="M 167.5,197.5 C 169.048,197.821 169.715,198.821 169.5,200.5C 168.599,199.71 167.932,198.71 167.5,197.5 Z"/></g>
<g><path style="opacity:0.092" fill="#8e8e8e" d="M 271.5,196.5 C 272.906,196.973 273.573,197.973 273.5,199.5C 272.094,199.027 271.427,198.027 271.5,196.5 Z"/></g>
<g><path style="opacity:0.031" fill="#707070" d="M 274.5,200.5 C 276.587,201.585 277.92,203.251 278.5,205.5C 276.413,204.415 275.08,202.749 274.5,200.5 Z"/></g>
<g><path style="opacity:0.302" fill="#949494" d="M 171.5,204.5 C 173.048,204.821 173.715,205.821 173.5,207.5C 172.599,206.71 171.932,205.71 171.5,204.5 Z"/></g>
<g><path style="opacity:0.035" fill="#8a8a8a" d="M 278.5,205.5 C 280.262,206.262 281.262,207.596 281.5,209.5C 279.738,208.738 278.738,207.404 278.5,205.5 Z"/></g>
<g><path style="opacity:0.169" fill="#888888" d="M 357.5,208.5 C 357.405,210.786 356.738,212.786 355.5,214.5C 355.259,212.102 355.926,210.102 357.5,208.5 Z"/></g>
<g><path style="opacity:0.047" fill="#b3b3b3" d="M 281.5,209.5 C 283.587,210.585 284.92,212.251 285.5,214.5C 283.413,213.415 282.08,211.749 281.5,209.5 Z"/></g>
<g><path style="opacity:0.58" fill="#585858" d="M 249.5,214.5 C 250.612,216.599 251.279,218.933 251.5,221.5C 249.837,219.562 249.171,217.228 249.5,214.5 Z"/></g>
<g><path style="opacity:0.067" fill="#767676" d="M 285.5,214.5 C 290.53,220.011 296.53,224.011 303.5,226.5C 303.5,226.833 303.5,227.167 303.5,227.5C 295.229,226.219 289.229,221.885 285.5,214.5 Z"/></g>
<g><path style="opacity:0.016" fill="#a7a7a9" d="M 302.5,222.5 C 303.71,222.932 304.71,223.599 305.5,224.5C 303.821,224.715 302.821,224.048 302.5,222.5 Z"/></g>
<g><path style="opacity:0.024" fill="#aeaeae" d="M 315.5,224.5 C 317.552,225.053 317.885,226.053 316.5,227.5C 316.443,226.391 316.11,225.391 315.5,224.5 Z"/></g>
<g><path style="opacity:0.497" fill="#5e5e5e" d="M 226.5,224.5 C 224.631,225.165 222.631,225.831 220.5,226.5C 234.484,227.499 248.484,227.833 262.5,227.5C 248.343,228.496 234.01,228.829 219.5,228.5C 219.5,227.167 219.5,225.833 219.5,224.5C 221.833,224.5 224.167,224.5 226.5,224.5 Z"/></g>
<g><path style="opacity:0.22" fill="#565656" d="M 281.5,277.5 C 284.781,277.42 287.781,278.087 290.5,279.5C 287.219,279.58 284.219,278.913 281.5,277.5 Z"/></g>
<g><path style="opacity:0.973" fill="#19191a" d="M 379.5,296.5 C 385.923,295.597 389.923,298.263 391.5,304.5C 389.744,309.887 386.077,313.22 380.5,314.5C 373.368,312.909 370.868,308.575 373,301.5C 374.965,299.45 377.132,297.783 379.5,296.5 Z"/></g>
<g><path style="opacity:0.988" fill="#161616" d="M 166.5,305.5 C 166.781,310.565 166.448,315.565 165.5,320.5C 169.774,321.088 174.108,321.088 178.5,320.5C 178.5,322.833 178.5,325.167 178.5,327.5C 174.833,327.5 171.167,327.5 167.5,327.5C 167.334,332.844 167.501,338.177 168,343.5C 169.085,344.293 170.252,344.96 171.5,345.5C 173.618,344.054 175.951,343.387 178.5,343.5C 178.383,345.484 179.05,347.15 180.5,348.5C 174.306,355.705 166.639,357.538 157.5,354C 155.383,352.269 153.883,350.102 153,347.5C 152.5,340.842 152.334,334.175 152.5,327.5C 146.326,328.827 144.159,326.494 146,320.5C 150.895,315.942 155.395,311.108 159.5,306C 161.81,305.503 164.143,305.337 166.5,305.5 Z"/></g>
<g><path style="opacity:0.98" fill="#181819" d="M 293.5,340.5 C 293.738,342.404 294.738,343.738 296.5,344.5C 299.889,346.22 303.556,346.887 307.5,346.5C 308.178,342.727 306.844,339.894 303.5,338C 295.877,334.273 289.044,329.439 283,323.5C 281.517,320.298 281.183,316.964 282,313.5C 288.182,303.77 297.015,299.603 308.5,301C 313.317,301.218 317.984,302.051 322.5,303.5C 322.808,309.425 322.475,315.259 321.5,321C 318.446,321.821 315.446,321.655 312.5,320.5C 310.833,317.833 309.167,315.167 307.5,312.5C 305.891,311.112 304.058,310.112 302,309.5C 299.942,310.058 298.775,311.391 298.5,313.5C 299.219,315.728 300.552,317.561 302.5,319C 311.135,322.718 318.302,328.218 324,335.5C 325.059,342.388 322.559,347.721 316.5,351.5C 311.933,354.935 306.767,356.602 301,356.5C 295.113,356.04 289.28,355.207 283.5,354C 281.575,348.464 280.908,342.631 281.5,336.5C 284.85,336.335 288.183,336.502 291.5,337C 292.823,337.816 293.489,338.983 293.5,340.5 Z"/></g>
<g><path style="opacity:0.982" fill="#181818" d="M 250.5,352.5 C 243.388,354.513 236.721,353.846 230.5,350.5C 229.817,350.863 229.15,351.196 228.5,351.5C 223.214,348.457 220.881,343.79 221.5,337.5C 223.719,324.456 231.553,317.456 245,316.5C 260.402,319.647 265.735,328.647 261,343.5C 258.561,347.775 255.061,350.775 250.5,352.5 Z M 239.5,327.5 C 242.675,327.84 244.841,329.507 246,332.5C 247.258,337.351 246.424,341.685 243.5,345.5C 237.74,341.729 235.907,336.396 238,329.5C 238.717,328.956 239.217,328.289 239.5,327.5 Z"/></g>
<g><path style="opacity:0.886" fill="#39393a" d="M 166.5,305.5 C 167.486,309.97 167.819,314.637 167.5,319.5C 171.371,319.185 175.038,319.518 178.5,320.5C 174.108,321.088 169.774,321.088 165.5,320.5C 166.448,315.565 166.781,310.565 166.5,305.5 Z"/></g>
<g><path style="opacity:0.965" fill="#181818" d="M 194.5,316.5 C 197.95,315.756 199.616,317.09 199.5,320.5C 202.529,319.005 205.696,317.672 209,316.5C 214.32,316.899 218.153,319.399 220.5,324C 218.235,327.936 215.568,331.603 212.5,335C 208.872,336.316 206.539,335.149 205.5,331.5C 204.675,330.614 203.675,330.281 202.5,330.5C 202.173,335.544 202.506,340.544 203.5,345.5C 205.776,346.213 208.109,346.713 210.5,347C 211.428,347.388 212.095,348.055 212.5,349C 211.804,350.893 210.97,352.726 210,354.5C 200.667,355.833 191.333,355.833 182,354.5C 180.503,349.834 182.003,346.5 186.5,344.5C 187.6,340.558 187.767,336.558 187,332.5C 183.536,330.871 181.369,328.204 180.5,324.5C 181.01,322.912 182.01,321.745 183.5,321C 187.474,320.006 191.14,318.506 194.5,316.5 Z"/></g>
<g><path style="opacity:0.996" fill="#1a1a1b" d="M 391.5,346.5 C 393.25,347.659 394.25,349.326 394.5,351.5C 394.489,353.017 393.823,354.184 392.5,355C 385.167,355.667 377.833,355.667 370.5,355C 368.675,353.534 368.175,351.701 369,349.5C 375.178,345.402 377.178,339.735 375,332.5C 373.855,331.364 372.688,330.364 371.5,329.5C 371.144,327.81 370.144,326.81 368.5,326.5C 368.658,324.179 369.658,322.346 371.5,321C 375.934,319.617 380.268,317.95 384.5,316C 386.235,315.349 387.902,315.515 389.5,316.5C 390.167,326.659 390.833,336.659 391.5,346.5 Z"/></g>
<g><path style="opacity:0.96" fill="#181819" d="M 460.5,351.5 C 460.167,350.167 459.833,350.167 459.5,351.5C 458.814,352.848 457.814,354.015 456.5,355C 447.833,355.667 439.167,355.667 430.5,355C 428.557,350.533 429.724,347.033 434,344.5C 434.499,338.843 434.666,333.176 434.5,327.5C 432.738,327.643 431.071,327.309 429.5,326.5C 428.526,324.257 428.192,321.924 428.5,319.5C 430.5,319.5 432.5,319.5 434.5,319.5C 435.921,302.91 444.921,295.077 461.5,296C 464.458,296.229 466.958,297.396 469,299.5C 479.631,293.488 484.631,296.488 484,308.5C 481.217,311.14 478.05,313.14 474.5,314.5C 472.226,314.03 470.226,313.03 468.5,311.5C 463.739,313.29 460.072,311.956 457.5,307.5C 455.591,306.652 453.591,306.318 451.5,306.5C 450.705,310.785 450.372,315.119 450.5,319.5C 453.833,319.5 457.167,319.5 460.5,319.5C 461.231,324.889 462.897,325.389 465.5,321C 470.603,319.034 475.77,317.2 481,315.5C 481.873,315.735 482.707,316.069 483.5,316.5C 484.499,326.478 484.832,336.478 484.5,346.5C 489.631,346.606 490.797,348.939 488,353.5C 487.25,354.126 486.416,354.626 485.5,355C 478.5,355.667 471.5,355.667 464.5,355C 462.302,353.122 462.136,350.955 464,348.5C 469.038,344.38 470.705,339.046 469,332.5C 466.323,330.486 463.656,328.486 461,326.5C 457.559,327.382 454.059,327.716 450.5,327.5C 450.171,333.537 450.504,339.537 451.5,345.5C 454.167,346.167 456.833,346.833 459.5,347.5C 461.189,348.775 461.522,350.108 460.5,351.5 Z"/></g>
<g><path style="opacity:0.078" fill="#8b8b8b" d="M 368.5,326.5 C 370.144,326.81 371.144,327.81 371.5,329.5C 369.856,329.19 368.856,328.19 368.5,326.5 Z"/></g>
<g><path style="opacity:0.991" fill="#1a1a1a" d="M 49.5,301.5 C 62.5043,301.333 75.5043,301.5 88.5,302C 102.726,310.632 103.059,319.798 89.5,329.5C 92.7516,334.334 95.7516,339.334 98.5,344.5C 105.172,346.354 106.172,349.854 101.5,355C 95.7194,355.903 90.0527,355.57 84.5,354C 81.1169,345.824 76.7836,338.324 71.5,331.5C 70.5059,336.456 70.1725,341.456 70.5,346.5C 78.5775,346.623 79.5775,349.456 73.5,355C 65.2543,355.815 57.0876,355.648 49,354.5C 48.3333,352.167 48.3333,349.833 49,347.5C 50.9552,346.547 52.6218,345.213 54,343.5C 54.4998,332.505 54.6665,321.505 54.5,310.5C 52.1944,310.007 49.861,309.674 47.5,309.5C 47.5597,306.659 48.2264,303.993 49.5,301.5 Z M 72.5,309.5 C 80.8345,311.008 83.3345,315.675 80,323.5C 77.6451,324.808 75.1451,325.808 72.5,326.5C 71.9017,327.795 71.4017,329.128 71,330.5C 70.3333,324.167 70.3333,317.833 71,311.5C 71.7172,310.956 72.2172,310.289 72.5,309.5 Z"/></g>
<g><path style="opacity:0.958" fill="#161616" d="M 399.5,328.5 C 408.192,328.169 416.859,328.502 425.5,329.5C 426.61,332.686 425.943,335.52 423.5,338C 415.167,338.667 406.833,338.667 398.5,338C 397.903,336.938 397.57,335.772 397.5,334.5C 397.719,332.307 398.385,330.307 399.5,328.5 Z"/></g>
<g><path style="opacity:0.995" fill="#191919" d="M 125.5,316.5 C 137.905,317.241 144.238,323.908 144.5,336.5C 144.314,338.58 143.314,340.08 141.5,341C 143.619,343.218 143.952,345.718 142.5,348.5C 140.023,350.143 137.69,351.976 135.5,354C 126.618,356.79 118.284,355.79 110.5,351C 101.671,339.781 103.004,329.781 114.5,321C 118.266,319.441 121.932,317.941 125.5,316.5 Z M 123.5,327.5 C 126.797,327.632 128.463,329.298 128.5,332.5C 125.753,332.813 123.086,332.48 120.5,331.5C 121.524,330.148 122.524,328.815 123.5,327.5 Z M 122.5,340.5 C 128.176,340.334 133.843,340.501 139.5,341C 134.398,343.343 129.064,344.01 123.5,343C 122.748,342.329 122.414,341.496 122.5,340.5 Z"/></g>
<g><path style="opacity:1" fill="#171718" d="M 357.5,353.5 C 354.533,352.637 351.533,352.97 348.5,354.5C 346.067,353.27 343.567,352.27 341,351.5C 340.583,352.756 339.75,353.423 338.5,353.5C 334.5,352.167 331.833,349.5 330.5,345.5C 330.073,341.176 329.739,336.842 329.5,332.5C 333.023,322.5 340.189,317.167 351,316.5C 354.5,317 358,317.5 361.5,318C 363.061,318.318 364.228,319.151 365,320.5C 365.667,324.833 365.667,329.167 365,333.5C 360.648,336.271 357.148,335.271 354.5,330.5C 345.94,325.782 342.773,328.448 345,338.5C 345.273,340.329 346.107,341.829 347.5,343C 353.626,343.62 359.626,343.12 365.5,341.5C 366.014,343.512 366.18,345.512 366,347.5C 363.269,349.745 360.436,351.745 357.5,353.5 Z"/></g>
<g><path style="opacity:0.345" fill="#59595a" d="M 329.5,332.5 C 329.739,336.842 330.073,341.176 330.5,345.5C 328.967,343.366 328.3,340.866 328.5,338C 328.506,335.967 328.839,334.134 329.5,332.5 Z"/></g>
<g><path style="opacity:0.212" fill="#878787" d="M 293.5,340.5 C 295.262,341.262 296.262,342.596 296.5,344.5C 294.738,343.738 293.738,342.404 293.5,340.5 Z"/></g>
<g><path style="opacity:0.231" fill="#626262" d="M 391.5,346.5 C 395.273,346.657 396.273,348.324 394.5,351.5C 394.25,349.326 393.25,347.659 391.5,346.5 Z"/></g>
<g><path style="opacity:0.004" fill="#000000" d="M 459.5,351.5 C 459.833,351.5 460.167,351.5 460.5,351.5C 460.315,352.17 459.981,352.17 459.5,351.5 Z"/></g>
<g><path style="opacity:0.768" fill="#49484b" d="M 250.5,352.5 C 247.32,354.867 243.653,355.867 239.5,355.5C 235.03,356.087 231.363,354.754 228.5,351.5C 229.15,351.196 229.817,350.863 230.5,350.5C 236.721,353.846 243.388,354.513 250.5,352.5 Z"/></g>
<g><path style="opacity:0.914" fill="#414143" d="M 357.5,353.5 C 354.474,355.019 351.141,355.685 347.5,355.5C 345.167,355.333 342.833,355.167 340.5,355C 339.584,354.722 338.918,354.222 338.5,353.5C 339.75,353.423 340.583,352.756 341,351.5C 343.567,352.27 346.067,353.27 348.5,354.5C 351.533,352.97 354.533,352.637 357.5,353.5 Z"/></g>
</svg>
