<?xml version="1.0" encoding="UTF-8"?>
<!DOCTYPE svg PUBLIC "-//W3C//DTD SVG 1.1//EN" "http://www.w3.org/Graphics/SVG/1.1/DTD/svg11.dtd">
<svg xmlns="http://www.w3.org/2000/svg" version="1.1" width="425px" height="425px" style="shape-rendering:geometricPrecision; text-rendering:geometricPrecision; image-rendering:optimizeQuality; fill-rule:evenodd; clip-rule:evenodd" xmlns:xlink="http://www.w3.org/1999/xlink">
<g><path style="opacity:0.996" fill="#000000" d="M 205.5,17.5 C 207.29,18.9973 209.456,19.664 212,19.5C 217.132,19.2754 221.965,18.2754 226.5,16.5C 239.501,12.586 252.835,9.58602 266.5,7.5C 280.589,9.62999 292.089,16.2967 301,27.5C 304.666,32.6611 308.499,37.6611 312.5,42.5C 315.167,47.1667 318.833,50.8333 323.5,53.5C 325.475,56.3462 328.141,58.5129 331.5,60C 330.167,60.6667 330.167,61.3333 331.5,62C 332.549,62.4922 333.549,62.3256 334.5,61.5C 335.251,62.376 335.751,63.376 336,64.5C 336.417,63.244 337.25,62.5774 338.5,62.5C 352.038,66.5093 364.704,72.3427 376.5,80C 383.11,85.7168 387.277,92.8835 389,101.5C 390.832,116.484 392.499,131.484 394,146.5C 395.413,151.739 397.413,156.739 400,161.5C 406.837,171.836 413.17,182.503 419,193.5C 424.42,204.925 424.42,216.258 419,227.5C 412.838,239.162 406.171,250.496 399,261.5C 397.275,264.674 395.942,268.007 395,271.5C 392.675,285.409 391.008,299.409 390,313.5C 387.849,332.483 377.682,344.817 359.5,350.5C 356.539,350.464 354.206,351.464 352.5,353.5C 344.338,354.088 337.338,357.088 331.5,362.5C 320.527,369.974 311.36,379.307 304,390.5C 299.167,395.333 294.333,400.167 289.5,405C 286.048,407.393 282.381,409.226 278.5,410.5C 270.394,411.737 262.394,412.07 254.5,411.5C 243.191,409.007 231.858,406.507 220.5,404C 214.833,403.333 209.167,403.333 203.5,404C 190.529,407.16 177.529,410.16 164.5,413C 152.313,414.493 141.646,411.16 132.5,403C 122.202,391.034 111.535,379.367 100.5,368C 93.0594,363.282 85.3927,359.115 77.5,355.5C 74.7635,352.968 71.4302,351.635 67.5,351.5C 47.0824,345.916 35.9157,332.582 34,311.5C 33.2336,298.767 31.9002,286.1 30,273.5C 25.4893,260.81 19.156,249.143 11,238.5C 3.9266,228.204 0.926599,216.871 2,204.5C 2.79768,201.107 3.79768,197.774 5,194.5C 13.7322,179.695 21.8988,164.695 29.5,149.5C 30.1174,149.389 30.6174,149.056 31,148.5C 33.143,138.956 33.9763,129.289 33.5,119.5C 34.6821,109.703 36.6821,100.036 39.5,90.5C 42.5,84.1667 47.1667,79.5 53.5,76.5C 57.8178,75.0078 61.8178,73.0078 65.5,70.5C 70.4775,70.4549 75.1442,70.4549 79.5,70.5C 80.9705,69.6195 81.8038,68.2861 82,66.5C 82.3333,66.8333 82.6667,67.1667 83,67.5C 85.09,65.5837 86.9233,63.5837 88.5,61.5C 90.674,61.2503 92.3406,60.2503 93.5,58.5C 100.053,55.9464 105.053,51.613 108.5,45.5C 115.918,35.9091 123.918,26.7424 132.5,18C 139.873,11.7645 148.373,8.26448 158,7.5C 173.872,10.508 189.705,13.8414 205.5,17.5 Z M 226.5,123.5 C 246.306,123.49 263.14,130.49 277,144.5C 294.041,171.099 289.541,193.599 263.5,212C 256.296,216.179 248.629,219.179 240.5,221C 239.09,221.368 238.09,222.201 237.5,223.5C 255.854,244.686 274.021,266.02 292,287.5C 298.33,295.248 306.164,300.915 315.5,304.5C 316.452,306.045 316.785,307.712 316.5,309.5C 315.5,309.5 314.5,309.5 313.5,309.5C 301.733,309.966 290.066,309.299 278.5,307.5C 270.658,302.84 263.491,297.173 257,290.5C 247.926,278.938 239.093,267.271 230.5,255.5C 239.459,265.395 247.959,275.728 256,286.5C 261.951,293.458 268.785,299.291 276.5,304C 280.561,305.576 284.728,306.743 289,307.5C 290.728,307.546 292.228,307.046 293.5,306C 290.978,303.91 288.312,302.076 285.5,300.5C 276.799,292.8 268.799,284.467 261.5,275.5C 248.782,258.604 235.449,242.104 221.5,226C 217.735,224.093 213.735,222.926 209.5,222.5C 207.734,222.434 206.734,223.268 206.5,225C 212.777,231.741 218.444,238.908 223.5,246.5C 217.629,239.451 211.295,232.784 204.5,226.5C 203.942,225.21 202.942,224.377 201.5,224C 194.842,223.5 188.175,223.334 181.5,223.5C 181.349,245.412 181.349,267.412 181.5,289.5C 182.434,293.934 184.768,297.434 188.5,300C 195.635,302.579 202.968,304.412 210.5,305.5C 211.833,306.5 211.833,307.5 210.5,308.5C 180.507,309.5 150.507,309.833 120.5,309.5C 120.5,307.833 120.5,306.167 120.5,304.5C 127.994,304.313 135.327,303.147 142.5,301C 146.521,299.132 148.687,295.965 149,291.5C 149.667,241.833 149.667,192.167 149,142.5C 147.676,135.015 143.176,131.348 135.5,131.5C 130.766,129.855 125.766,129.189 120.5,129.5C 120.5,127.5 120.5,125.5 120.5,123.5C 155.833,123.5 191.167,123.5 226.5,123.5 Z M 223.5,246.5 C 225.587,247.585 226.92,249.251 227.5,251.5C 225.413,250.415 224.08,248.749 223.5,246.5 Z M 227.5,251.5 C 229.262,252.262 230.262,253.596 230.5,255.5C 228.738,254.738 227.738,253.404 227.5,251.5 Z"/></g>
<g><path style="opacity:0.694" fill="#222226" d="M 226.5,16.5 C 221.965,18.2754 217.132,19.2754 212,19.5C 209.456,19.664 207.29,18.9973 205.5,17.5C 212.524,17.5649 219.524,17.2316 226.5,16.5 Z"/></g>
<g><path style="opacity:0.184" fill="#1f1f20" d="M 312.5,42.5 C 316.5,45.8333 320.167,49.5 323.5,53.5C 318.833,50.8333 315.167,47.1667 312.5,42.5 Z"/></g>
<g><path style="opacity:0.329" fill="#2c2b2f" d="M 108.5,45.5 C 105.053,51.613 100.053,55.9464 93.5,58.5C 98.7701,54.5693 103.77,50.2359 108.5,45.5 Z"/></g>
<g><path style="opacity:0.357" fill="#313436" d="M 93.5,58.5 C 92.3406,60.2503 90.674,61.2503 88.5,61.5C 88.1667,61.5 87.8333,61.5 87.5,61.5C 89.1815,59.9925 91.1815,58.9925 93.5,58.5 Z"/></g>
<g><path style="opacity:0.886" fill="#1a1a1c" d="M 323.5,53.5 C 328.37,56.7662 333.37,59.7662 338.5,62.5C 337.25,62.5774 336.417,63.244 336,64.5C 335.751,63.376 335.251,62.376 334.5,61.5C 333.549,62.3256 332.549,62.4922 331.5,62C 330.167,61.3333 330.167,60.6667 331.5,60C 328.141,58.5129 325.475,56.3462 323.5,53.5 Z"/></g>
<g><path style="opacity:0.98" fill="#101216" d="M 87.5,61.5 C 87.8333,61.5 88.1667,61.5 88.5,61.5C 86.9233,63.5837 85.09,65.5837 83,67.5C 82.6667,67.1667 82.3333,66.8333 82,66.5C 81.8038,68.2861 80.9705,69.6195 79.5,70.5C 75.1442,70.4549 70.4775,70.4549 65.5,70.5C 72.5963,67.129 79.9296,64.129 87.5,61.5 Z"/></g>
<g><path style="opacity:0.184" fill="#27292e" d="M 65.5,70.5 C 61.8178,73.0078 57.8178,75.0078 53.5,76.5C 56.9136,73.4598 60.9136,71.4598 65.5,70.5 Z"/></g>
<g><path style="opacity:0.71" fill="#181617" d="M 39.5,90.5 C 36.6821,100.036 34.6821,109.703 33.5,119.5C 33.3512,112.059 34.1845,104.725 36,97.5C 36.6701,94.8261 37.8368,92.4927 39.5,90.5 Z"/></g>
<g><path style="opacity:0.159" fill="#121212" d="M 226.5,123.5 C 191.167,123.5 155.833,123.5 120.5,123.5C 120.5,125.5 120.5,127.5 120.5,129.5C 125.766,129.189 130.766,129.855 135.5,131.5C 130.187,130.902 124.854,130.569 119.5,130.5C 119.5,127.833 119.5,125.167 119.5,122.5C 155.337,122.168 191.004,122.502 226.5,123.5 Z"/></g>
<g><path style="opacity:0.715" fill="#151416" d="M 223.5,130.5 C 215.83,131.041 207.83,131.541 199.5,132C 197.273,132.121 195.44,132.954 194,134.5C 193.692,133.692 193.192,133.025 192.5,132.5C 190.466,133.559 188.466,134.559 186.5,135.5C 189.04,132.393 192.373,130.56 196.5,130C 205.523,129.319 214.523,129.486 223.5,130.5 Z"/></g>
<g><path style="opacity:0.993" fill="#010001" d="M 223.5,130.5 C 239.469,135.308 248.969,145.974 252,162.5C 257.212,197.784 242.045,216.451 206.5,218.5C 200.911,216.916 195.078,215.916 189,215.5C 186.901,216.287 184.734,216.62 182.5,216.5C 182.333,193.498 182.5,170.498 183,147.5C 183.333,145.5 183.667,143.5 184,141.5C 184.654,142.696 185.154,142.696 185.5,141.5C 184.873,140.583 184.539,139.583 184.5,138.5C 184.427,136.973 185.094,135.973 186.5,135.5C 188.466,134.559 190.466,133.559 192.5,132.5C 193.192,133.025 193.692,133.692 194,134.5C 195.44,132.954 197.273,132.121 199.5,132C 207.83,131.541 215.83,131.041 223.5,130.5 Z"/></g>
<g><path style="opacity:0.968" fill="#040304" d="M 161.5,141.5 C 161.452,192.686 161.452,244.019 161.5,295.5C 158.838,300.683 154.505,303.683 148.5,304.5C 147,304.547 146,303.881 145.5,302.5C 148.012,300.33 149.679,297.663 150.5,294.5C 152.117,293.411 152.95,291.744 153,289.5C 153.667,240.5 153.667,191.5 153,142.5C 152.79,140.942 152.29,139.609 151.5,138.5C 150.169,135.873 148.336,133.54 146,131.5C 145.517,130.552 145.351,129.552 145.5,128.5C 152.317,128.82 157.484,131.82 161,137.5C 161.49,138.793 161.657,140.127 161.5,141.5 Z"/></g>
<g><path style="opacity:0.533" fill="#1b1819" d="M 33.5,119.5 C 33.9763,129.289 33.143,138.956 31,148.5C 30.6174,149.056 30.1174,149.389 29.5,149.5C 31.1053,139.404 32.4386,129.404 33.5,119.5 Z"/></g>
<g><path style="opacity:0.951" fill="#090609" d="M 236.5,130.5 C 250.979,134.143 260.479,143.143 265,157.5C 269.049,174.423 266.383,190.089 257,204.5C 250.434,211.035 242.601,215.368 233.5,217.5C 232,217.547 231,216.881 230.5,215.5C 247.597,207.482 255.931,193.982 255.5,175C 256.267,157.932 250.101,144.099 237,133.5C 236.517,132.552 236.351,131.552 236.5,130.5 Z"/></g>
<g><path style="opacity:0.423" fill="#121011" d="M 184.5,138.5 C 184.539,139.583 184.873,140.583 185.5,141.5C 185.154,142.696 184.654,142.696 184,141.5C 183.667,143.5 183.333,145.5 183,147.5C 182.5,170.498 182.333,193.498 182.5,216.5C 184.734,216.62 186.901,216.287 189,215.5C 195.078,215.916 200.911,216.916 206.5,218.5C 198.493,218.666 190.493,218.5 182.5,218C 181.809,216.933 181.309,215.766 181,214.5C 180.708,201.257 180.541,188.09 180.5,175C 181.125,164.506 181.625,154.006 182,143.5C 182.374,141.509 183.207,139.842 184.5,138.5 Z"/></g>
<g><path style="opacity:0.505" fill="#211f24" d="M 161.5,141.5 C 162.833,192.833 162.833,244.167 161.5,295.5C 161.452,244.019 161.452,192.686 161.5,141.5 Z"/></g>
<g><path style="opacity:0.969" fill="#0a080b" d="M 261.5,275.5 C 266.413,283.437 272.413,290.603 279.5,297C 279.167,297.333 278.833,297.667 278.5,298C 279.667,299.167 280.833,300.333 282,301.5C 283.011,300.663 284.178,300.33 285.5,300.5C 288.312,302.076 290.978,303.91 293.5,306C 292.228,307.046 290.728,307.546 289,307.5C 284.728,306.743 280.561,305.576 276.5,304C 268.785,299.291 261.951,293.458 256,286.5C 247.959,275.728 239.459,265.395 230.5,255.5C 230.262,253.596 229.262,252.262 227.5,251.5C 226.92,249.251 225.587,247.585 223.5,246.5C 218.444,238.908 212.777,231.741 206.5,225C 206.734,223.268 207.734,222.434 209.5,222.5C 213.735,222.926 217.735,224.093 221.5,226C 235.449,242.104 248.782,258.604 261.5,275.5 Z"/></g>
<g><path style="opacity:0.388" fill="#151515" d="M 204.5,226.5 C 197.498,225.87 190.498,225.204 183.5,224.5C 182.833,246.33 182.167,267.996 181.5,289.5C 181.349,267.412 181.349,245.412 181.5,223.5C 188.175,223.334 194.842,223.5 201.5,224C 202.942,224.377 203.942,225.21 204.5,226.5 Z"/></g>
<g><path style="opacity:0.119" fill="#2a2627" d="M 151.5,138.5 C 152.29,139.609 152.79,140.942 153,142.5C 153.667,191.5 153.667,240.5 153,289.5C 152.95,291.744 152.117,293.411 150.5,294.5C 151.228,291.921 151.728,289.254 152,286.5C 152.805,237.151 152.638,187.818 151.5,138.5 Z"/></g>
<g><path style="opacity:0.09" fill="#1c1b1d" d="M 261.5,275.5 C 268.799,284.467 276.799,292.8 285.5,300.5C 284.178,300.33 283.011,300.663 282,301.5C 280.833,300.333 279.667,299.167 278.5,298C 278.833,297.667 279.167,297.333 279.5,297C 272.413,290.603 266.413,283.437 261.5,275.5 Z"/></g>
<g><path style="opacity:0.665" fill="#1b1a1f" d="M 278.5,307.5 C 290.066,309.299 301.733,309.966 313.5,309.5C 302.28,312.181 290.947,312.014 279.5,309C 278.944,308.617 278.611,308.117 278.5,307.5 Z"/></g>
<g><path style="opacity:0.141" fill="#2c2c2c" d="M 359.5,350.5 C 357.491,352.065 355.157,353.065 352.5,353.5C 354.206,351.464 356.539,350.464 359.5,350.5 Z"/></g>
<g><path style="opacity:0.237" fill="#2a2a2a" d="M 67.5,351.5 C 71.4302,351.635 74.7635,352.968 77.5,355.5C 73.7029,355.128 70.3695,353.794 67.5,351.5 Z"/></g>
<g><path style="opacity:0.78" fill="#212121" d="M 352.5,353.5 C 345.659,356.676 338.659,359.676 331.5,362.5C 337.338,357.088 344.338,354.088 352.5,353.5 Z"/></g>
<g><path style="opacity:0.563" fill="#171718" d="M 278.5,410.5 C 270.634,414.094 262.634,414.427 254.5,411.5C 262.394,412.07 270.394,411.737 278.5,410.5 Z"/></g>
</svg>
