<?xml version="1.0" encoding="UTF-8"?>
<!DOCTYPE svg PUBLIC "-//W3C//DTD SVG 1.1//EN" "http://www.w3.org/Graphics/SVG/1.1/DTD/svg11.dtd">
<svg xmlns="http://www.w3.org/2000/svg" version="1.1" width="539px" height="463px" style="shape-rendering:geometricPrecision; text-rendering:geometricPrecision; image-rendering:optimizeQuality; fill-rule:evenodd; clip-rule:evenodd" xmlns:xlink="http://www.w3.org/1999/xlink">
<g><path style="opacity:0.991" fill="#fafafa" d="M 173.5,207.5 C 173.715,205.821 173.048,204.821 171.5,204.5C 170.833,203.167 170.167,201.833 169.5,200.5C 169.715,198.821 169.048,197.821 167.5,197.5C 162.853,191.953 160.186,185.453 159.5,178C 159.94,174.407 160.773,170.907 162,167.5C 165.667,161.167 169.333,154.833 173,148.5C 174.413,138.426 176.08,128.426 178,118.5C 182.936,111.25 189.769,106.75 198.5,105C 202.134,102.847 205.801,100.68 209.5,98.5C 215.274,92.4696 220.94,86.3029 226.5,80C 230.328,77.6127 234.495,76.446 239,76.5C 247.744,78.3574 256.578,79.6907 265.5,80.5C 272.667,80.1945 279.667,79.0278 286.5,77C 293.049,75.6356 299.049,76.8022 304.5,80.5C 310.283,86.5718 315.95,92.7384 321.5,99C 328.279,102.774 335.279,106.108 342.5,109C 350.257,112.666 354.424,118.833 355,127.5C 355.031,135.311 356.031,142.978 358,150.5C 364.302,158.796 368.802,167.963 371.5,178C 371.079,180.185 370.579,182.351 370,184.5C 366.523,192.122 362.523,199.455 358,206.5C 356.031,214.022 355.031,221.689 355,229.5C 354.135,236.742 350.635,242.242 344.5,246C 336.19,249.488 328.19,253.488 320.5,258C 314.81,264.688 308.81,271.022 302.5,277C 299.078,278.87 295.411,279.703 291.5,279.5C 282.783,278.155 274.116,276.488 265.5,274.5C 254.705,277.786 243.705,279.286 232.5,279C 223.573,273.741 216.24,266.741 210.5,258C 200.399,253.199 190.566,248.033 181,242.5C 178.566,239.205 176.899,235.538 176,231.5C 175.599,223.444 174.765,215.444 173.5,207.5 Z M 315.5,224.5 C 316.11,225.391 316.443,226.391 316.5,227.5C 312.167,227.5 307.833,227.5 303.5,227.5C 303.5,227.167 303.5,226.833 303.5,226.5C 304.675,226.719 305.675,226.386 306.5,225.5C 306.376,224.893 306.043,224.56 305.5,224.5C 304.71,223.599 303.71,222.932 302.5,222.5C 293.698,213.543 285.364,204.21 277.5,194.5C 277.5,193.167 276.833,192.5 275.5,192.5C 273.617,187.943 270.283,185.277 265.5,184.5C 263.653,183.427 261.653,183.427 259.5,184.5C 257.076,184.365 255.076,184.032 253.5,183.5C 259.679,182.736 265.679,181.736 271.5,180.5C 283.939,181.925 291.106,176.258 293,163.5C 294.402,152.908 290.902,144.408 282.5,138C 280.866,137.506 279.199,137.34 277.5,137.5C 276.504,137.414 275.671,137.748 275,138.5C 271.072,136.534 267.072,135.868 263,136.5C 259.115,136.865 255.449,137.865 252,139.5C 251.138,141.087 250.471,142.754 250,144.5C 249.41,150.493 248.91,156.493 248.5,162.5C 249.022,167.978 249.022,173.478 248.5,179C 250.312,182.462 250.312,186.129 248.5,190C 249.297,199.799 249.797,209.632 250,219.5C 250.833,221.667 252.333,223.167 254.5,224C 257.833,224.667 261.167,225.333 264.5,226C 263.956,226.717 263.289,227.217 262.5,227.5C 248.484,227.833 234.484,227.499 220.5,226.5C 222.631,225.831 224.631,225.165 226.5,224.5C 228.144,224.714 229.644,224.38 231,223.5C 232.067,225.283 233.567,225.783 235.5,225C 238.232,224.602 240.065,223.102 241,220.5C 241.667,194.833 241.667,169.167 241,143.5C 239.173,137.416 235.507,135.749 230,138.5C 227.261,137.397 224.761,136.73 222.5,136.5C 232.06,135.821 241.56,135.155 251,134.5C 256.435,134.68 261.768,134.68 267,134.5C 279.233,133.715 289.566,137.715 298,146.5C 305.004,158.181 303.171,168.347 292.5,177C 288.185,179.773 283.518,181.773 278.5,183C 277.978,183.561 277.645,184.228 277.5,185C 287.351,195.853 296.851,207.019 306,218.5C 308.83,221.188 311.996,223.188 315.5,224.5 Z"/></g>
<g><path style="opacity:0.008" fill="#717171" d="M 278.5,139.5 C 282.044,142.381 284.377,146.048 285.5,150.5C 285.167,150.5 284.833,150.5 284.5,150.5C 284.5,149.833 284.167,149.5 283.5,149.5C 282.182,145.668 279.848,142.501 276.5,140C 277.094,139.536 277.761,139.369 278.5,139.5 Z"/></g>
<g><path style="opacity:0.915" fill="#dcdcdc" d="M 277.5,137.5 C 279.199,137.34 280.866,137.506 282.5,138C 290.902,144.408 294.402,152.908 293,163.5C 291.106,176.258 283.939,181.925 271.5,180.5C 275.167,179.17 278.5,177.17 281.5,174.5C 283.531,173.461 284.864,171.795 285.5,169.5C 285.5,168.833 285.167,168.5 284.5,168.5C 284.263,167.209 284.596,166.209 285.5,165.5C 286.644,166.183 286.644,165.849 285.5,164.5C 285.02,159.47 284.353,154.47 283.5,149.5C 284.167,149.5 284.5,149.833 284.5,150.5C 284.833,151.833 285.167,151.833 285.5,150.5C 284.377,146.048 282.044,142.381 278.5,139.5C 278.938,139.565 279.272,139.399 279.5,139C 278.584,138.722 277.918,138.222 277.5,137.5 Z"/></g>
<g><path style="opacity:0.114" fill="#747474" d="M 284.5,169.5 C 284.833,169.5 285.167,169.5 285.5,169.5C 284.864,171.795 283.531,173.461 281.5,174.5C 282.248,172.668 283.248,171.001 284.5,169.5 Z"/></g>
<g><path style="opacity:0.051" fill="#676766" d="M 265.5,184.5 C 263.821,184.285 262.821,184.952 262.5,186.5C 261.29,186.068 260.29,185.401 259.5,184.5C 261.653,183.427 263.653,183.427 265.5,184.5 Z"/></g>
<g><path style="opacity:0.919" fill="#e1e1e1" d="M 265.5,184.5 C 270.283,185.277 273.617,187.943 275.5,192.5C 275.833,193.5 276.5,194.167 277.5,194.5C 285.364,204.21 293.698,213.543 302.5,222.5C 302.821,224.048 303.821,224.715 305.5,224.5C 306.043,224.56 306.376,224.893 306.5,225.5C 305.675,226.386 304.675,226.719 303.5,226.5C 296.53,224.011 290.53,220.011 285.5,214.5C 284.92,212.251 283.587,210.585 281.5,209.5C 275.698,202.857 270.031,196.023 264.5,189C 265.167,188.667 265.833,188.333 266.5,188C 265.252,187.139 263.919,186.639 262.5,186.5C 262.821,184.952 263.821,184.285 265.5,184.5 Z"/></g>
<g><path style="opacity:0.004" fill="#3c3c3c" d="M 275.5,192.5 C 276.833,192.5 277.5,193.167 277.5,194.5C 276.5,194.167 275.833,193.5 275.5,192.5 Z"/></g>
<g><path style="opacity:0.255" fill="#6f6f6f" d="M 167.5,197.5 C 169.048,197.821 169.715,198.821 169.5,200.5C 168.599,199.71 167.932,198.71 167.5,197.5 Z"/></g>
<g><path style="opacity:0.302" fill="#626262" d="M 171.5,204.5 C 173.048,204.821 173.715,205.821 173.5,207.5C 172.599,206.71 171.932,205.71 171.5,204.5 Z"/></g>
<g><path style="opacity:0.047" fill="#494949" d="M 281.5,209.5 C 283.587,210.585 284.92,212.251 285.5,214.5C 283.413,213.415 282.08,211.749 281.5,209.5 Z"/></g>
<g><path style="opacity:0.067" fill="#838383" d="M 285.5,214.5 C 290.53,220.011 296.53,224.011 303.5,226.5C 303.5,226.833 303.5,227.167 303.5,227.5C 295.229,226.219 289.229,221.885 285.5,214.5 Z"/></g>
<g><path style="opacity:0.016" fill="#52514e" d="M 302.5,222.5 C 303.71,222.932 304.71,223.599 305.5,224.5C 303.821,224.715 302.821,224.048 302.5,222.5 Z"/></g>
<g><path style="opacity:0.024" fill="#4e4e4e" d="M 315.5,224.5 C 317.552,225.053 317.885,226.053 316.5,227.5C 316.443,226.391 316.11,225.391 315.5,224.5 Z"/></g>
<g><path style="opacity:0.462" fill="#a1a1a1" d="M 226.5,224.5 C 224.631,225.165 222.631,225.831 220.5,226.5C 234.484,227.499 248.484,227.833 262.5,227.5C 248.343,228.496 234.01,228.829 219.5,228.5C 219.5,227.167 219.5,225.833 219.5,224.5C 221.833,224.5 224.167,224.5 226.5,224.5 Z"/></g>
<g><path style="opacity:0.959" fill="#d6d6d6" d="M 475.5,296.5 C 474.402,297.397 474.402,298.23 475.5,299C 472.101,298.385 469.768,299.885 468.5,303.5C 469.833,304.5 469.833,305.5 468.5,306.5C 469.575,309.101 470.909,311.434 472.5,313.5C 470.956,313.297 469.622,312.63 468.5,311.5C 463.739,313.29 460.072,311.956 457.5,307.5C 456.264,306.754 454.93,306.421 453.5,306.5C 454.568,305.566 455.901,305.232 457.5,305.5C 457.413,302.402 457.913,302.068 459,304.5C 459.333,303.167 459.667,301.833 460,300.5C 460.333,301.167 460.667,301.833 461,302.5C 462.074,301.382 463.24,300.382 464.5,299.5C 463.609,298.41 462.609,298.41 461.5,299.5C 460.304,299.154 460.304,298.654 461.5,298C 458.874,298.148 456.374,297.981 454,297.5C 450.859,298.603 447.693,299.603 444.5,300.5C 446.366,297.73 449.032,296.23 452.5,296C 458.566,294.78 464.066,295.946 469,299.5C 470.993,298.086 473.16,297.086 475.5,296.5 Z"/></g>
<g><path style="opacity:0.998" fill="#ededec" d="M 475.5,296.5 C 483.124,296.972 485.957,300.972 484,308.5C 480.888,312.58 477.055,314.247 472.5,313.5C 470.909,311.434 469.575,309.101 468.5,306.5C 469.833,305.5 469.833,304.5 468.5,303.5C 469.768,299.885 472.101,298.385 475.5,299C 474.402,298.23 474.402,297.397 475.5,296.5 Z"/></g>
<g><path style="opacity:0.967" fill="#e3e3e3" d="M 49.5,301.5 C 62.5043,301.333 75.5043,301.5 88.5,302C 102.726,310.632 103.059,319.798 89.5,329.5C 92.7516,334.334 95.7516,339.334 98.5,344.5C 105.172,346.354 106.172,349.854 101.5,355C 95.7194,355.903 90.0527,355.57 84.5,354C 81.1169,345.824 76.7836,338.324 71.5,331.5C 70.5059,336.456 70.1725,341.456 70.5,346.5C 78.5775,346.623 79.5775,349.456 73.5,355C 65.2543,355.815 57.0876,355.648 49,354.5C 48.3333,352.167 48.3333,349.833 49,347.5C 50.9552,346.547 52.6218,345.213 54,343.5C 54.4998,332.505 54.6665,321.505 54.5,310.5C 52.1944,310.007 49.861,309.674 47.5,309.5C 47.5597,306.659 48.2264,303.993 49.5,301.5 Z M 72.5,309.5 C 80.8345,311.008 83.3345,315.675 80,323.5C 77.6451,324.808 75.1451,325.808 72.5,326.5C 71.9017,327.795 71.4017,329.128 71,330.5C 70.3333,324.167 70.3333,317.833 71,311.5C 71.7172,310.956 72.2172,310.289 72.5,309.5 Z"/></g>
<g><path style="opacity:0.983" fill="#e9eae9" d="M 379.5,296.5 C 385.923,295.597 389.923,298.263 391.5,304.5C 389.744,309.887 386.077,313.22 380.5,314.5C 373.368,312.909 370.868,308.575 373,301.5C 374.965,299.45 377.132,297.783 379.5,296.5 Z"/></g>
<g><path style="opacity:0.789" fill="#bababa" d="M 361.5,318.5 C 355.245,319.437 349.245,319.437 343.5,318.5C 349.472,316.111 355.472,316.111 361.5,318.5 Z"/></g>
<g><path style="opacity:0.957" fill="#e7e7e6" d="M 194.5,316.5 C 197.95,315.756 199.616,317.09 199.5,320.5C 202.529,319.005 205.696,317.672 209,316.5C 214.32,316.899 218.153,319.399 220.5,324C 218.235,327.936 215.568,331.603 212.5,335C 208.872,336.316 206.539,335.149 205.5,331.5C 204.675,330.614 203.675,330.281 202.5,330.5C 202.173,335.544 202.506,340.544 203.5,345.5C 205.776,346.213 208.109,346.713 210.5,347C 211.428,347.388 212.095,348.055 212.5,349C 211.804,350.893 210.97,352.726 210,354.5C 200.667,355.833 191.333,355.833 182,354.5C 180.503,349.834 182.003,346.5 186.5,344.5C 187.6,340.558 187.767,336.558 187,332.5C 183.536,330.871 181.369,328.204 180.5,324.5C 181.01,322.912 182.01,321.745 183.5,321C 187.474,320.006 191.14,318.506 194.5,316.5 Z"/></g>
<g><path style="opacity:0.945" fill="#e5e5e4" d="M 125.5,316.5 C 137.905,317.241 144.238,323.908 144.5,336.5C 144.314,338.58 143.314,340.08 141.5,341C 143.619,343.218 143.952,345.718 142.5,348.5C 140.023,350.143 137.69,351.976 135.5,354C 126.618,356.79 118.284,355.79 110.5,351C 101.671,339.781 103.004,329.781 114.5,321C 118.266,319.441 121.932,317.941 125.5,316.5 Z M 123.5,327.5 C 126.797,327.632 128.463,329.298 128.5,332.5C 125.753,332.813 123.086,332.48 120.5,331.5C 121.524,330.148 122.524,328.815 123.5,327.5 Z M 122.5,340.5 C 128.176,340.334 133.843,340.501 139.5,341C 134.398,343.343 129.064,344.01 123.5,343C 122.748,342.329 122.414,341.496 122.5,340.5 Z"/></g>
<g><path style="opacity:1" fill="#e5e5e4" d="M 298.5,300.5 C 306.671,300.481 314.671,301.481 322.5,303.5C 322.808,309.425 322.475,315.259 321.5,321C 318.446,321.821 315.446,321.655 312.5,320.5C 310.833,317.833 309.167,315.167 307.5,312.5C 305.891,311.112 304.058,310.112 302,309.5C 299.942,310.058 298.775,311.391 298.5,313.5C 299.219,315.728 300.552,317.561 302.5,319C 311.135,322.718 318.302,328.218 324,335.5C 325.059,342.388 322.559,347.721 316.5,351.5C 311.933,354.935 306.767,356.602 301,356.5C 295.113,356.04 289.28,355.207 283.5,354C 281.575,348.464 280.908,342.631 281.5,336.5C 284.85,336.335 288.183,336.502 291.5,337C 293.824,340.323 296.491,343.323 299.5,346C 302.146,346.497 304.813,346.664 307.5,346.5C 308.178,342.727 306.844,339.894 303.5,338C 298.833,335.333 294.167,332.667 289.5,330C 278.628,320.958 278.961,312.292 290.5,304C 293.122,302.525 295.788,301.359 298.5,300.5 Z"/></g>
<g><path style="opacity:0.993" fill="#e1e1e1" d="M 371.5,329.5 C 371.144,327.81 370.144,326.81 368.5,326.5C 368.658,324.179 369.658,322.346 371.5,321C 375.934,319.617 380.268,317.95 384.5,316C 386.235,315.349 387.902,315.515 389.5,316.5C 390.499,326.478 390.832,336.478 390.5,346.5C 396.479,347.57 397.145,350.403 392.5,355C 385.167,355.667 377.833,355.667 370.5,355C 368.675,353.534 368.175,351.701 369,349.5C 375.178,345.402 377.178,339.735 375,332.5C 373.855,331.364 372.688,330.364 371.5,329.5 Z"/></g>
<g><path style="opacity:0.984" fill="#e5e5e4" d="M 453.5,306.5 C 452.069,306.881 451.236,307.881 451,309.5C 450.502,312.817 450.335,316.15 450.5,319.5C 453.833,319.5 457.167,319.5 460.5,319.5C 461.231,324.889 462.897,325.389 465.5,321C 470.603,319.034 475.77,317.2 481,315.5C 481.873,315.735 482.707,316.069 483.5,316.5C 484.499,326.478 484.832,336.478 484.5,346.5C 489.631,346.606 490.797,348.939 488,353.5C 487.25,354.126 486.416,354.626 485.5,355C 478.5,355.667 471.5,355.667 464.5,355C 462.302,353.122 462.136,350.955 464,348.5C 469.038,344.38 470.705,339.046 469,332.5C 466.323,330.486 463.656,328.486 461,326.5C 457.559,327.382 454.059,327.716 450.5,327.5C 450.171,333.537 450.504,339.537 451.5,345.5C 454.167,346.167 456.833,346.833 459.5,347.5C 461.189,348.775 461.522,350.108 460.5,351.5C 460.167,350.167 459.833,350.167 459.5,351.5C 458.814,352.848 457.814,354.015 456.5,355C 447.833,355.667 439.167,355.667 430.5,355C 428.557,350.533 429.724,347.033 434,344.5C 434.499,338.843 434.666,333.176 434.5,327.5C 432.738,327.643 431.071,327.309 429.5,326.5C 428.526,324.257 428.192,321.924 428.5,319.5C 430.5,319.5 432.5,319.5 434.5,319.5C 434.085,311.002 437.419,304.669 444.5,300.5C 447.693,299.603 450.859,298.603 454,297.5C 456.374,297.981 458.874,298.148 461.5,298C 460.304,298.654 460.304,299.154 461.5,299.5C 462.609,298.41 463.609,298.41 464.5,299.5C 463.24,300.382 462.074,301.382 461,302.5C 460.667,301.833 460.333,301.167 460,300.5C 459.667,301.833 459.333,303.167 459,304.5C 457.913,302.068 457.413,302.402 457.5,305.5C 455.901,305.232 454.568,305.566 453.5,306.5 Z"/></g>
<g><path style="opacity:0.078" fill="#6b6b6b" d="M 368.5,326.5 C 370.144,326.81 371.144,327.81 371.5,329.5C 369.856,329.19 368.856,328.19 368.5,326.5 Z"/></g>
<g><path style="opacity:0.998" fill="#e5e5e4" d="M 343.5,318.5 C 349.245,319.437 355.245,319.437 361.5,318.5C 363.124,318.36 364.29,319.027 365,320.5C 365.667,324.833 365.667,329.167 365,333.5C 360.648,336.271 357.148,335.271 354.5,330.5C 345.94,325.782 342.773,328.448 345,338.5C 345.273,340.329 346.107,341.829 347.5,343C 353.626,343.62 359.626,343.12 365.5,341.5C 366.014,343.512 366.18,345.512 366,347.5C 359.07,355.023 350.57,357.523 340.5,355C 329.432,349.69 325.932,341.19 330,329.5C 333.184,324.143 337.684,320.476 343.5,318.5 Z"/></g>
<g><path style="opacity:0.984" fill="#e4e4e4" d="M 250.5,352.5 C 243.059,354.061 235.725,353.728 228.5,351.5C 223.214,348.457 220.881,343.79 221.5,337.5C 223.719,324.456 231.553,317.456 245,316.5C 260.402,319.647 265.735,328.647 261,343.5C 258.561,347.775 255.061,350.775 250.5,352.5 Z M 239.5,327.5 C 242.675,327.84 244.841,329.507 246,332.5C 247.258,337.351 246.424,341.685 243.5,345.5C 237.74,341.729 235.907,336.396 238,329.5C 238.717,328.956 239.217,328.289 239.5,327.5 Z"/></g>
<g><path style="opacity:0.933" fill="#e9e9e9" d="M 399.5,328.5 C 408.192,328.169 416.859,328.502 425.5,329.5C 426.61,332.686 425.943,335.52 423.5,338C 415.167,338.667 406.833,338.667 398.5,338C 397.903,336.938 397.57,335.772 397.5,334.5C 397.719,332.307 398.385,330.307 399.5,328.5 Z"/></g>
<g><path style="opacity:0.921" fill="#e5e5e5" d="M 159.5,305.5 C 162.167,305.5 164.833,305.5 167.5,305.5C 167.5,310.167 167.5,314.833 167.5,319.5C 171.167,319.5 174.833,319.5 178.5,319.5C 178.5,322.167 178.5,324.833 178.5,327.5C 174.833,327.5 171.167,327.5 167.5,327.5C 167.334,332.844 167.501,338.177 168,343.5C 169.085,344.293 170.252,344.96 171.5,345.5C 173.618,344.054 175.951,343.387 178.5,343.5C 178.383,345.484 179.05,347.15 180.5,348.5C 174.306,355.705 166.639,357.538 157.5,354C 155.383,352.269 153.883,350.102 153,347.5C 152.5,340.842 152.334,334.175 152.5,327.5C 146.326,328.827 144.159,326.494 146,320.5C 151.106,315.902 155.606,310.902 159.5,305.5 Z"/></g>
<g><path style="opacity:0.004" fill="#fefffe" d="M 459.5,351.5 C 459.833,351.5 460.167,351.5 460.5,351.5C 460.315,352.17 459.981,352.17 459.5,351.5 Z"/></g>
<g><path style="opacity:0.863" fill="#aeafac" d="M 228.5,351.5 C 235.725,353.728 243.059,354.061 250.5,352.5C 247.32,354.867 243.653,355.867 239.5,355.5C 235.03,356.087 231.363,354.754 228.5,351.5 Z"/></g>
</svg>
