<?xml version="1.0" encoding="UTF-8"?>
<!DOCTYPE svg PUBLIC "-//W3C//DTD SVG 1.1//EN" "http://www.w3.org/Graphics/SVG/1.1/DTD/svg11.dtd">
<svg xmlns="http://www.w3.org/2000/svg" version="1.1" width="425px" height="425px" style="shape-rendering:geometricPrecision; text-rendering:geometricPrecision; image-rendering:optimizeQuality; fill-rule:evenodd; clip-rule:evenodd" xmlns:xlink="http://www.w3.org/1999/xlink">
<g><path style="opacity:0.997" fill="#fefefe" d="M 312.5,42.5 C 315.167,47.1667 318.833,50.8333 323.5,53.5C 325.475,56.3462 328.141,58.5129 331.5,60C 330.167,60.6667 330.167,61.3333 331.5,62C 332.549,62.4922 333.549,62.3256 334.5,61.5C 335.167,62.5 335.833,63.5 336.5,64.5C 338.071,63.6906 339.738,63.3573 341.5,63.5C 353.962,67.3988 365.629,72.8988 376.5,80C 383.11,85.7168 387.277,92.8835 389,101.5C 390.832,116.484 392.499,131.484 394,146.5C 395.413,151.739 397.413,156.739 400,161.5C 406.837,171.836 413.17,182.503 419,193.5C 424.42,204.925 424.42,216.258 419,227.5C 412.838,239.162 406.171,250.496 399,261.5C 397.275,264.674 395.942,268.007 395,271.5C 392.675,285.409 391.008,299.409 390,313.5C 388.065,331.591 378.565,343.591 361.5,349.5C 353.05,351.711 344.717,354.545 336.5,358C 334.308,359.067 332.642,360.567 331.5,362.5C 320.527,369.974 311.36,379.307 304,390.5C 299.167,395.333 294.333,400.167 289.5,405C 286.048,407.393 282.381,409.226 278.5,410.5C 270.394,411.737 262.394,412.07 254.5,411.5C 243.191,409.007 231.858,406.507 220.5,404C 206.051,403.256 192.051,405.423 178.5,410.5C 172.419,409.375 166.086,410.041 159.5,412.5C 155.135,411.781 150.469,411.114 145.5,410.5C 140.814,408.655 136.48,406.155 132.5,403C 125.248,395.588 118.581,387.755 112.5,379.5C 108.828,374.99 105.328,370.323 102,365.5C 100.586,366.413 99.0861,366.413 97.5,365.5C 90.7946,362.147 84.1279,358.814 77.5,355.5C 76.9423,354.21 75.9423,353.377 74.5,353C 70.5621,351.526 66.5621,350.359 62.5,349.5C 44.5392,343.269 35.0392,330.602 34,311.5C 33.2336,298.767 31.9002,286.1 30,273.5C 25.4893,260.81 19.156,249.143 11,238.5C 3.9266,228.204 0.926599,216.871 2,204.5C 2.79768,201.107 3.79768,197.774 5,194.5C 13.7322,179.695 21.8988,164.695 29.5,149.5C 30.1174,149.389 30.6174,149.056 31,148.5C 33.143,138.956 33.9763,129.289 33.5,119.5C 34.2344,118.122 34.9011,116.622 35.5,115C 35.5,111.333 35.5,107.667 35.5,104C 37.0201,101.404 37.8534,98.5706 38,95.5C 38.9794,93.6797 40.4794,92.513 42.5,92C 40.4311,91.6758 40.0977,90.8425 41.5,89.5C 42.2739,88.2888 43.1072,88.2888 44,89.5C 43.2075,87.4995 43.3741,85.4995 44.5,83.5C 46.6367,80.027 49.6367,77.6936 53.5,76.5C 59.3565,74.0698 65.0232,71.4032 70.5,68.5C 73.5418,68.2671 76.2084,67.2671 78.5,65.5C 81.0884,63.4082 84.0884,62.0749 87.5,61.5C 90.089,61.539 92.089,60.539 93.5,58.5C 101.736,54.2654 108.402,48.2654 113.5,40.5C 118.895,31.3835 125.895,23.7168 134.5,17.5C 136.466,16.5588 138.466,15.5588 140.5,14.5C 143.055,14.055 145.722,14.055 148.5,14.5C 151.332,13.1284 154.332,12.1284 157.5,11.5C 163.336,10.2443 169.669,10.2443 176.5,11.5C 180.8,11.7547 184.8,12.7547 188.5,14.5C 189.848,15.1859 191.015,16.1859 192,17.5C 192.561,16.9781 193.228,16.6448 194,16.5C 204.749,19.8988 215.582,20.2321 226.5,17.5C 228.044,17.7896 229.377,18.4563 230.5,19.5C 229.984,18.2418 230.65,17.2418 232.5,16.5C 235,15.6411 237.333,14.6411 239.5,13.5C 263.538,2.47999 284.038,7.14666 301,27.5C 304.666,32.6611 308.499,37.6611 312.5,42.5 Z M 226.5,123.5 C 246.306,123.49 263.14,130.49 277,144.5C 294.041,171.099 289.541,193.599 263.5,212C 256.296,216.179 248.629,219.179 240.5,221C 239.09,221.368 238.09,222.201 237.5,223.5C 255.854,244.686 274.021,266.02 292,287.5C 298.33,295.248 306.164,300.915 315.5,304.5C 316.452,306.045 316.785,307.712 316.5,309.5C 315.5,309.5 314.5,309.5 313.5,309.5C 304.494,309.666 295.494,309.5 286.5,309C 281.544,308.353 276.877,306.853 272.5,304.5C 266.934,300.435 261.768,295.769 257,290.5C 247.926,278.938 239.093,267.271 230.5,255.5C 239.459,265.395 247.959,275.728 256,286.5C 260.167,290.667 264.333,294.833 268.5,299C 271.952,301.393 275.619,303.226 279.5,304.5C 283.916,307.488 288.582,307.988 293.5,306C 281.344,297.343 270.678,287.176 261.5,275.5C 248.782,258.604 235.449,242.104 221.5,226C 217.735,224.093 213.735,222.926 209.5,222.5C 207.734,222.434 206.734,223.268 206.5,225C 212.777,231.741 218.444,238.908 223.5,246.5C 219.878,243.278 216.712,239.612 214,235.5C 210.239,231.23 206.072,227.563 201.5,224.5C 195.021,223.509 188.354,223.176 181.5,223.5C 181.349,245.412 181.349,267.412 181.5,289.5C 182.434,293.934 184.768,297.434 188.5,300C 195.635,302.579 202.968,304.412 210.5,305.5C 210.863,306.183 211.196,306.85 211.5,307.5C 181.391,309.48 151.057,310.147 120.5,309.5C 120.5,307.833 120.5,306.167 120.5,304.5C 127.994,304.313 135.327,303.147 142.5,301C 146.521,299.132 148.687,295.965 149,291.5C 149.667,241.833 149.667,192.167 149,142.5C 148.861,139.555 147.694,137.221 145.5,135.5C 142.755,132.962 139.422,131.462 135.5,131C 130.566,129.84 125.566,129.34 120.5,129.5C 120.5,127.5 120.5,125.5 120.5,123.5C 155.833,123.5 191.167,123.5 226.5,123.5 Z M 223.5,246.5 C 225.587,247.585 226.92,249.251 227.5,251.5C 225.413,250.415 224.08,248.749 223.5,246.5 Z M 227.5,251.5 C 229.262,252.262 230.262,253.596 230.5,255.5C 228.738,254.738 227.738,253.404 227.5,251.5 Z"/></g>
<g><path style="opacity:1" fill="#f6f5f1" d="M 176.5,11.5 C 169.669,10.2443 163.336,10.2443 157.5,11.5C 154.332,12.1284 151.332,13.1284 148.5,14.5C 145.722,14.055 143.055,14.055 140.5,14.5C 138.466,15.5588 136.466,16.5588 134.5,17.5C 137.039,14.8095 140.039,12.6428 143.5,11C 154.511,7.07939 165.511,7.24606 176.5,11.5 Z"/></g>
<g><path style="opacity:0.714" fill="#e1e1dd" d="M 239.5,13.5 C 237.333,14.6411 235,15.6411 232.5,16.5C 230.65,17.2418 229.984,18.2418 230.5,19.5C 229.377,18.4563 228.044,17.7896 226.5,17.5C 215.582,20.2321 204.749,19.8988 194,16.5C 193.228,16.6448 192.561,16.9781 192,17.5C 191.015,16.1859 189.848,15.1859 188.5,14.5C 196.072,16.1472 203.739,17.1472 211.5,17.5C 220.966,17.0333 230.299,15.6999 239.5,13.5 Z"/></g>
<g><path style="opacity:0.179" fill="#dfdfde" d="M 312.5,42.5 C 316.5,45.8333 320.167,49.5 323.5,53.5C 318.833,50.8333 315.167,47.1667 312.5,42.5 Z"/></g>
<g><path style="opacity:0.329" fill="#d4d5d1" d="M 113.5,40.5 C 108.402,48.2654 101.736,54.2654 93.5,58.5C 100.439,52.8987 107.106,46.8987 113.5,40.5 Z"/></g>
<g><path style="opacity:0.357" fill="#cdcac8" d="M 93.5,58.5 C 92.089,60.539 90.089,61.539 87.5,61.5C 89.1815,59.9925 91.1815,58.9925 93.5,58.5 Z"/></g>
<g><path style="opacity:0.886" fill="#e6e7e3" d="M 323.5,53.5 C 329.245,57.3705 335.245,60.7038 341.5,63.5C 339.738,63.3573 338.071,63.6906 336.5,64.5C 335.833,63.5 335.167,62.5 334.5,61.5C 333.549,62.3256 332.549,62.4922 331.5,62C 330.167,61.3333 330.167,60.6667 331.5,60C 328.141,58.5129 325.475,56.3462 323.5,53.5 Z"/></g>
<g><path style="opacity:0.247" fill="#d1ccc7" d="M 78.5,65.5 C 76.2084,67.2671 73.5418,68.2671 70.5,68.5C 72.7916,66.7329 75.4582,65.7329 78.5,65.5 Z"/></g>
<g><path style="opacity:0.184" fill="#d7d4ce" d="M 70.5,68.5 C 65.0232,71.4032 59.3565,74.0698 53.5,76.5C 58.4731,72.5151 64.1397,69.8485 70.5,68.5 Z"/></g>
<g><path style="opacity:0.635" fill="#e6e9e7" d="M 44.5,83.5 C 43.3741,85.4995 43.2075,87.4995 44,89.5C 43.1072,88.2888 42.2739,88.2888 41.5,89.5C 40.0977,90.8425 40.4311,91.6758 42.5,92C 40.4794,92.513 38.9794,93.6797 38,95.5C 37.8534,98.5706 37.0201,101.404 35.5,104C 35.5,107.667 35.5,111.333 35.5,115C 34.9011,116.622 34.2344,118.122 33.5,119.5C 33.0936,108.598 35.2603,98.2648 40,88.5C 41.0491,86.3825 42.5491,84.7158 44.5,83.5 Z"/></g>
<g><path style="opacity:0.165" fill="#ededec" d="M 226.5,123.5 C 191.167,123.5 155.833,123.5 120.5,123.5C 120.5,125.5 120.5,127.5 120.5,129.5C 125.566,129.34 130.566,129.84 135.5,131C 139.422,131.462 142.755,132.962 145.5,135.5C 143.401,135.028 141.401,135.028 139.5,135.5C 139.167,134.833 138.833,134.167 138.5,133.5C 136.936,136.136 135.603,135.969 134.5,133C 133.551,132.383 132.718,132.549 132,133.5C 131.167,132.667 130.333,131.833 129.5,131C 126.183,130.502 122.85,130.335 119.5,130.5C 119.5,127.833 119.5,125.167 119.5,122.5C 155.337,122.168 191.004,122.502 226.5,123.5 Z"/></g>
<g><path style="opacity:0.7" fill="#ebebe9" d="M 223.5,130.5 C 215.83,131.041 207.83,131.541 199.5,132C 197.273,132.121 195.44,132.954 194,134.5C 193.667,133.833 193.333,133.167 193,132.5C 190.749,133.412 188.583,134.412 186.5,135.5C 189.04,132.393 192.373,130.56 196.5,130C 205.523,129.319 214.523,129.486 223.5,130.5 Z"/></g>
<g><path style="opacity:0.995" fill="#fefefe" d="M 223.5,130.5 C 239.469,135.308 248.969,145.974 252,162.5C 253.294,174.066 252.294,185.4 249,196.5C 245.208,203.463 239.708,208.463 232.5,211.5C 227.369,213.563 222.035,215.063 216.5,216C 205.209,215.903 193.876,216.07 182.5,216.5C 182.214,191.145 182.547,165.812 183.5,140.5C 183.75,138.326 184.75,136.659 186.5,135.5C 188.583,134.412 190.749,133.412 193,132.5C 193.333,133.167 193.667,133.833 194,134.5C 195.44,132.954 197.273,132.121 199.5,132C 207.83,131.541 215.83,131.041 223.5,130.5 Z"/></g>
<g><path style="opacity:0.727" fill="#e4e6e6" d="M 33.5,119.5 C 33.9763,129.289 33.143,138.956 31,148.5C 30.6174,149.056 30.1174,149.389 29.5,149.5C 31.1053,139.404 32.4386,129.404 33.5,119.5 Z"/></g>
<g><path style="opacity:0.979" fill="#fafcfa" d="M 161.5,141.5 C 161.485,192.838 161.485,244.171 161.5,295.5C 158.838,300.683 154.505,303.683 148.5,304.5C 147,304.547 146,303.881 145.5,302.5C 148.012,300.33 149.679,297.663 150.5,294.5C 152.117,293.411 152.95,291.744 153,289.5C 153.667,240.5 153.667,191.5 153,142.5C 152.79,140.942 152.29,139.609 151.5,138.5C 150.169,135.873 148.336,133.54 146,131.5C 145.517,130.552 145.351,129.552 145.5,128.5C 152.317,128.82 157.484,131.82 161,137.5C 161.49,138.793 161.657,140.127 161.5,141.5 Z"/></g>
<g><path style="opacity:0.966" fill="#f7f9f7" d="M 236.5,130.5 C 250.979,134.143 260.479,143.143 265,157.5C 269.049,174.423 266.383,190.089 257,204.5C 250.434,211.035 242.601,215.368 233.5,217.5C 232,217.547 231,216.881 230.5,215.5C 247.597,207.482 255.931,193.982 255.5,175C 256.267,157.932 250.101,144.099 237,133.5C 236.517,132.552 236.351,131.552 236.5,130.5 Z"/></g>
<g><path style="opacity:0.51" fill="#dddfdb" d="M 161.5,141.5 C 162.833,192.833 162.833,244.167 161.5,295.5C 161.485,244.171 161.485,192.838 161.5,141.5 Z"/></g>
<g><path style="opacity:0.425" fill="#edeeee" d="M 183.5,140.5 C 182.547,165.812 182.214,191.145 182.5,216.5C 193.876,216.07 205.209,215.903 216.5,216C 222.035,215.063 227.369,213.563 232.5,211.5C 228.106,214.693 223.106,216.526 217.5,217C 205.622,218.583 193.788,218.75 182,217.5C 181.023,214.759 180.523,211.925 180.5,209C 180.51,197.585 180.51,186.252 180.5,175C 181.125,164.506 181.625,154.006 182,143.5C 182.232,142.263 182.732,141.263 183.5,140.5 Z"/></g>
<g><path style="opacity:0.982" fill="#f7f8f6" d="M 261.5,275.5 C 266.136,283.651 272.136,290.818 279.5,297C 279.167,297.333 278.833,297.667 278.5,298C 280.019,299.351 281.352,300.851 282.5,302.5C 281.643,303.425 280.643,304.092 279.5,304.5C 275.619,303.226 271.952,301.393 268.5,299C 264.333,294.833 260.167,290.667 256,286.5C 247.959,275.728 239.459,265.395 230.5,255.5C 230.262,253.596 229.262,252.262 227.5,251.5C 226.92,249.251 225.587,247.585 223.5,246.5C 218.444,238.908 212.777,231.741 206.5,225C 206.734,223.268 207.734,222.434 209.5,222.5C 213.735,222.926 217.735,224.093 221.5,226C 235.449,242.104 248.782,258.604 261.5,275.5 Z"/></g>
<g><path style="opacity:0.074" fill="#d5d8d8" d="M 151.5,138.5 C 152.29,139.609 152.79,140.942 153,142.5C 153.667,191.5 153.667,240.5 153,289.5C 152.95,291.744 152.117,293.411 150.5,294.5C 151.228,291.921 151.728,289.254 152,286.5C 152.805,237.151 152.638,187.818 151.5,138.5 Z"/></g>
<g><path style="opacity:0.39" fill="#e9e9e9" d="M 201.5,224.5 C 195.167,224.5 188.833,224.5 182.5,224.5C 182.831,246.34 182.497,268.006 181.5,289.5C 181.349,267.412 181.349,245.412 181.5,223.5C 188.354,223.176 195.021,223.509 201.5,224.5 Z"/></g>
<g><path style="opacity:0.954" fill="#e9ede8" d="M 261.5,275.5 C 270.678,287.176 281.344,297.343 293.5,306C 288.582,307.988 283.916,307.488 279.5,304.5C 280.643,304.092 281.643,303.425 282.5,302.5C 281.352,300.851 280.019,299.351 278.5,298C 278.833,297.667 279.167,297.333 279.5,297C 272.136,290.818 266.136,283.651 261.5,275.5 Z"/></g>
<g><path style="opacity:0.144" fill="#e3e3df" d="M 211.5,307.5 C 211.5,308.5 211.5,309.5 211.5,310.5C 185.492,310.288 159.492,310.621 133.5,311.5C 129.5,311.333 125.5,311.167 121.5,311C 120.833,310.667 120.167,310.333 119.5,310C 119.728,309.601 120.062,309.435 120.5,309.5C 151.057,310.147 181.391,309.48 211.5,307.5 Z"/></g>
<g><path style="opacity:0.665" fill="#e5e6e1" d="M 272.5,304.5 C 276.877,306.853 281.544,308.353 286.5,309C 295.494,309.5 304.494,309.666 313.5,309.5C 301.834,312.432 290.167,312.099 278.5,308.5C 277.522,308.977 276.689,309.643 276,310.5C 275.074,308.308 273.907,306.308 272.5,304.5 Z"/></g>
<g><path style="opacity:0.408" fill="#d9d9d8" d="M 62.5,349.5 C 66.5621,350.359 70.5621,351.526 74.5,353C 75.9423,353.377 76.9423,354.21 77.5,355.5C 72.1046,354.296 67.1046,352.296 62.5,349.5 Z"/></g>
<g><path style="opacity:0.831" fill="#dedede" d="M 361.5,349.5 C 351.742,354.204 341.742,358.537 331.5,362.5C 332.642,360.567 334.308,359.067 336.5,358C 344.717,354.545 353.05,351.711 361.5,349.5 Z"/></g>
<g><path style="opacity:0.322" fill="#e3e3e3" d="M 97.5,365.5 C 99.0861,366.413 100.586,366.413 102,365.5C 105.328,370.323 108.828,374.99 112.5,379.5C 107.474,374.805 102.474,370.139 97.5,365.5 Z"/></g>
<g><path style="opacity:0.575" fill="#e8e8e7" d="M 278.5,410.5 C 270.634,414.094 262.634,414.427 254.5,411.5C 262.394,412.07 270.394,411.737 278.5,410.5 Z"/></g>
<g><path style="opacity:0.153" fill="#e9eae7" d="M 178.5,410.5 C 171.909,411.932 165.242,412.932 158.5,413.5C 153.801,413.573 149.467,412.573 145.5,410.5C 150.469,411.114 155.135,411.781 159.5,412.5C 166.086,410.041 172.419,409.375 178.5,410.5 Z"/></g>
</svg>
