<?xml version="1.0" encoding="UTF-8"?>
<!DOCTYPE svg PUBLIC "-//W3C//DTD SVG 1.1//EN" "http://www.w3.org/Graphics/SVG/1.1/DTD/svg11.dtd">
<svg xmlns="http://www.w3.org/2000/svg" version="1.1" width="512px" height="512px" style="shape-rendering:geometricPrecision; text-rendering:geometricPrecision; image-rendering:optimizeQuality; fill-rule:evenodd; clip-rule:evenodd" xmlns:xlink="http://www.w3.org/1999/xlink">
<g><path style="opacity:0.986" fill="#fefefe" d="M 248.5,-0.5 C 253.167,-0.5 257.833,-0.5 262.5,-0.5C 268.48,1.98203 272.647,6.31536 275,12.5C 275.333,155.5 275.667,298.5 276,441.5C 299.833,417.667 323.667,393.833 347.5,370C 359.939,363.488 370.105,365.988 378,377.5C 380.486,385.193 379.819,392.527 376,399.5C 340.139,435.028 304.639,470.861 269.5,507C 267.102,508.524 264.769,510.024 262.5,511.5C 257.833,511.5 253.167,511.5 248.5,511.5C 246.231,510.024 243.898,508.524 241.5,507C 206.361,470.861 170.861,435.028 135,399.5C 129.151,388.484 130.651,378.65 139.5,370C 147.5,365.333 155.5,365.333 163.5,370C 187.333,393.833 211.167,417.667 235,441.5C 235.333,298.5 235.667,155.5 236,12.5C 238.353,6.31536 242.52,1.98203 248.5,-0.5 Z"/></g>
</svg>
