<?xml version="1.0" encoding="UTF-8"?>
<!DOCTYPE svg PUBLIC "-//W3C//DTD SVG 1.1//EN" "http://www.w3.org/Graphics/SVG/1.1/DTD/svg11.dtd">
<svg xmlns="http://www.w3.org/2000/svg" version="1.1" width="512px" height="512px" style="shape-rendering:geometricPrecision; text-rendering:geometricPrecision; image-rendering:optimizeQuality; fill-rule:evenodd; clip-rule:evenodd" xmlns:xlink="http://www.w3.org/1999/xlink">
<g><path style="opacity:1" fill="#040404" d="M 248.5,-0.5 C 253.167,-0.5 257.833,-0.5 262.5,-0.5C 268.48,1.98203 272.647,6.31536 275,12.5C 275.333,155.5 275.667,298.5 276,441.5C 298.701,418.632 321.535,395.965 344.5,373.5C 346.749,372.92 348.415,371.587 349.5,369.5C 355.569,365.93 361.902,365.597 368.5,368.5C 368.821,370.048 369.821,370.715 371.5,370.5C 379.047,376.344 381.547,384.01 379,393.5C 378.439,395.725 377.439,397.725 376,399.5C 340.139,435.028 304.639,470.861 269.5,507C 267.102,508.524 264.769,510.024 262.5,511.5C 257.833,511.5 253.167,511.5 248.5,511.5C 246.651,510.407 244.984,509.074 243.5,507.5C 243.027,506.094 242.027,505.427 240.5,505.5C 234.167,499.833 228.167,493.833 222.5,487.5C 214.091,477.587 205.091,468.087 195.5,459C 194.906,458.536 194.239,458.369 193.5,458.5C 173.173,438.006 153.007,417.34 133,396.5C 128.289,376.553 136.122,366.719 156.5,367C 157.901,367.41 159.234,367.91 160.5,368.5C 160.821,370.048 161.821,370.715 163.5,370.5C 187.465,393.965 211.299,417.632 235,441.5C 235.333,298.5 235.667,155.5 236,12.5C 236.697,10.4156 237.864,8.74894 239.5,7.5C 241.167,6.5 242.5,5.16667 243.5,3.5C 244.984,1.92635 246.651,0.593015 248.5,-0.5 Z"/></g>
<g><path style="opacity:0.686" fill="#838383" d="M 243.5,3.5 C 242.5,5.16667 241.167,6.5 239.5,7.5C 239.833,5.16667 241.167,3.83333 243.5,3.5 Z"/></g>
<g><path style="opacity:0.969" fill="#737373" d="M 160.5,368.5 C 161.71,368.932 162.71,369.599 163.5,370.5C 161.821,370.715 160.821,370.048 160.5,368.5 Z"/></g>
<g><path style="opacity:0.969" fill="#737373" d="M 368.5,368.5 C 369.71,368.932 370.71,369.599 371.5,370.5C 369.821,370.715 368.821,370.048 368.5,368.5 Z"/></g>
<g><path style="opacity:0.969" fill="#515151" d="M 349.5,369.5 C 348.415,371.587 346.749,372.92 344.5,373.5C 345.585,371.413 347.251,370.08 349.5,369.5 Z"/></g>
<g><path style="opacity:0.592" fill="#a9a9a9" d="M 193.5,458.5 C 194.239,458.369 194.906,458.536 195.5,459C 205.091,468.087 214.091,477.587 222.5,487.5C 212.5,478.167 202.833,468.5 193.5,458.5 Z"/></g>
<g><path style="opacity:0.71" fill="#919191" d="M 240.5,505.5 C 242.027,505.427 243.027,506.094 243.5,507.5C 241.973,507.573 240.973,506.906 240.5,505.5 Z"/></g>
</svg>
