<?xml version="1.0" encoding="UTF-8"?>
<!DOCTYPE svg PUBLIC "-//W3C//DTD SVG 1.1//EN" "http://www.w3.org/Graphics/SVG/1.1/DTD/svg11.dtd">
<svg xmlns="http://www.w3.org/2000/svg" version="1.1" width="512px" height="512px" style="shape-rendering:geometricPrecision; text-rendering:geometricPrecision; image-rendering:optimizeQuality; fill-rule:evenodd; clip-rule:evenodd" xmlns:xlink="http://www.w3.org/1999/xlink">
<g><path style="opacity:1" fill="#030303" d="M 248.5,-0.5 C 253.167,-0.5 257.833,-0.5 262.5,-0.5C 272.068,6.3961 280.734,14.3961 288.5,23.5C 297.446,34.1136 307.112,44.1136 317.5,53.5C 338.16,73.3269 358.327,93.6603 378,114.5C 381.679,124.893 379.512,133.726 371.5,141C 364.113,145.382 356.78,145.549 349.5,141.5C 349.027,140.094 348.027,139.427 346.5,139.5C 322.868,116.368 299.368,93.0349 276,69.5C 275.667,212.5 275.333,355.5 275,498.5C 272.647,504.685 268.48,509.018 262.5,511.5C 257.833,511.5 253.167,511.5 248.5,511.5C 242.52,509.018 238.353,504.685 236,498.5C 235.667,355.5 235.333,212.5 235,69.5C 211.167,93.3333 187.333,117.167 163.5,141C 156.113,145.382 148.78,145.549 141.5,141.5C 141.027,140.094 140.027,139.427 138.5,139.5C 135.365,137.24 133.198,134.24 132,130.5C 131.161,125.079 131.494,119.746 133,114.5C 152.34,93.9936 172.173,73.9936 192.5,54.5C 209.833,37.8333 226.833,20.8333 243.5,3.5C 244.984,1.92635 246.651,0.593015 248.5,-0.5 Z"/></g>
<g><path style="opacity:0.678" fill="#a7a7a7" d="M 288.5,23.5 C 298.888,32.8864 308.554,42.8864 317.5,53.5C 307.112,44.1136 297.446,34.1136 288.5,23.5 Z"/></g>
<g><path style="opacity:0.608" fill="#939393" d="M 243.5,3.5 C 226.833,20.8333 209.833,37.8333 192.5,54.5C 208.246,37.2518 224.579,20.4185 241.5,4C 242.094,3.53566 242.761,3.36899 243.5,3.5 Z"/></g>
<g><path style="opacity:0.51" fill="#8e8e8e" d="M 138.5,139.5 C 140.027,139.427 141.027,140.094 141.5,141.5C 139.973,141.573 138.973,140.906 138.5,139.5 Z"/></g>
<g><path style="opacity:0.51" fill="#8d8d8d" d="M 346.5,139.5 C 348.027,139.427 349.027,140.094 349.5,141.5C 347.973,141.573 346.973,140.906 346.5,139.5 Z"/></g>
</svg>
