<?xml version="1.0" encoding="UTF-8"?>
<!DOCTYPE svg PUBLIC "-//W3C//DTD SVG 1.1//EN" "http://www.w3.org/Graphics/SVG/1.1/DTD/svg11.dtd">
<svg xmlns="http://www.w3.org/2000/svg" version="1.1" width="512px" height="512px" style="shape-rendering:geometricPrecision; text-rendering:geometricPrecision; image-rendering:optimizeQuality; fill-rule:evenodd; clip-rule:evenodd" xmlns:xlink="http://www.w3.org/1999/xlink">
<g><path style="opacity:0.986" fill="#fefefe" d="M 248.5,-0.5 C 253.167,-0.5 257.833,-0.5 262.5,-0.5C 264.769,0.97576 267.102,2.47576 269.5,4C 304.639,40.139 340.139,75.9723 376,111.5C 381.849,122.516 380.349,132.35 371.5,141C 363.5,145.667 355.5,145.667 347.5,141C 323.667,117.167 299.833,93.3333 276,69.5C 275.667,212.5 275.333,355.5 275,498.5C 272.647,504.685 268.48,509.018 262.5,511.5C 257.833,511.5 253.167,511.5 248.5,511.5C 242.52,509.018 238.353,504.685 236,498.5C 235.667,355.5 235.333,212.5 235,69.5C 211.167,93.3333 187.333,117.167 163.5,141C 151.061,147.512 140.895,145.012 133,133.5C 130.514,125.807 131.181,118.473 135,111.5C 170.861,75.9723 206.361,40.139 241.5,4C 243.898,2.47576 246.231,0.97576 248.5,-0.5 Z"/></g>
</svg>
