<?xml version="1.0" encoding="UTF-8"?>
<!DOCTYPE svg PUBLIC "-//W3C//DTD SVG 1.1//EN" "http://www.w3.org/Graphics/SVG/1.1/DTD/svg11.dtd">
<svg xmlns="http://www.w3.org/2000/svg" version="1.1" width="512px" height="512px" style="shape-rendering:geometricPrecision; text-rendering:geometricPrecision; image-rendering:optimizeQuality; fill-rule:evenodd; clip-rule:evenodd" xmlns:xlink="http://www.w3.org/1999/xlink">
<g><path style="opacity:0.986" fill="#fefffe" d="M 511.5,248.5 C 511.5,253.167 511.5,257.833 511.5,262.5C 510.024,264.769 508.524,267.102 507,269.5C 470.861,304.639 435.028,340.139 399.5,376C 388.484,381.849 378.65,380.349 370,371.5C 365.333,363.5 365.333,355.5 370,347.5C 393.833,323.667 417.667,299.833 441.5,276C 298.5,275.667 155.5,275.333 12.5,275C 6.31536,272.647 1.98203,268.48 -0.5,262.5C -0.5,257.833 -0.5,253.167 -0.5,248.5C 1.98203,242.52 6.31536,238.353 12.5,236C 155.5,235.667 298.5,235.333 441.5,235C 417.667,211.167 393.833,187.333 370,163.5C 363.488,151.061 365.988,140.895 377.5,133C 385.193,130.514 392.527,131.181 399.5,135C 435.028,170.861 470.861,206.361 507,241.5C 508.524,243.898 510.024,246.231 511.5,248.5 Z"/></g>
</svg>
