<?xml version="1.0" encoding="UTF-8"?>
<!DOCTYPE svg PUBLIC "-//W3C//DTD SVG 1.1//EN" "http://www.w3.org/Graphics/SVG/1.1/DTD/svg11.dtd">
<svg xmlns="http://www.w3.org/2000/svg" version="1.1" width="512px" height="512px" style="shape-rendering:geometricPrecision; text-rendering:geometricPrecision; image-rendering:optimizeQuality; fill-rule:evenodd; clip-rule:evenodd" xmlns:xlink="http://www.w3.org/1999/xlink">
<g><path style="opacity:1" fill="#030303" d="M 139.5,138.5 C 139.427,140.027 140.094,141.027 141.5,141.5C 145.549,148.78 145.382,156.113 141,163.5C 117.167,187.333 93.3333,211.167 69.5,235C 212.5,235.333 355.5,235.667 498.5,236C 500.692,236.926 502.692,238.093 504.5,239.5C 504.738,241.404 505.738,242.738 507.5,243.5C 509.074,244.984 510.407,246.651 511.5,248.5C 511.5,253.167 511.5,257.833 511.5,262.5C 509.018,268.48 504.685,272.647 498.5,275C 355.5,275.333 212.5,275.667 69.5,276C 93.0349,299.368 116.368,322.868 139.5,346.5C 139.427,348.027 140.094,349.027 141.5,349.5C 147.45,362.808 143.784,372.642 130.5,379C 125.079,379.839 119.746,379.506 114.5,378C 93.9936,358.66 73.9936,338.827 54.5,318.5C 44.7805,307.779 34.4471,297.779 23.5,288.5C 14.3961,280.734 6.3961,272.068 -0.5,262.5C -0.5,257.833 -0.5,253.167 -0.5,248.5C 0.593015,246.651 1.92635,244.984 3.5,243.5C 20.5,227.167 37.1667,210.5 53.5,193.5C 72.8838,173.115 92.8838,153.449 113.5,134.5C 115.027,134.573 116.027,133.906 116.5,132.5C 123.534,130.617 130.201,131.45 136.5,135C 137.71,136.039 138.71,137.206 139.5,138.5 Z"/></g>
<g><path style="opacity:0.835" fill="#797979" d="M 116.5,132.5 C 116.027,133.906 115.027,134.573 113.5,134.5C 113.973,133.094 114.973,132.427 116.5,132.5 Z"/></g>
<g><path style="opacity:0.502" fill="#8f8f8f" d="M 139.5,138.5 C 140.906,138.973 141.573,139.973 141.5,141.5C 140.094,141.027 139.427,140.027 139.5,138.5 Z"/></g>
<g><path style="opacity:0.737" fill="#828282" d="M 53.5,193.5 C 37.1667,210.5 20.5,227.167 3.5,243.5C 18.9123,226.585 34.9123,210.085 51.5,194C 52.0944,193.536 52.7611,193.369 53.5,193.5 Z"/></g>
<g><path style="opacity:0.71" fill="#959595" d="M 504.5,239.5 C 506.262,240.262 507.262,241.596 507.5,243.5C 505.738,242.738 504.738,241.404 504.5,239.5 Z"/></g>
<g><path style="opacity:0.706" fill="#a7a7a7" d="M 23.5,288.5 C 34.4471,297.779 44.7805,307.779 54.5,318.5C 43.5529,309.221 33.2195,299.221 23.5,288.5 Z"/></g>
<g><path style="opacity:0.502" fill="#8e8e8e" d="M 139.5,346.5 C 140.906,346.973 141.573,347.973 141.5,349.5C 140.094,349.027 139.427,348.027 139.5,346.5 Z"/></g>
</svg>
