<?xml version="1.0" encoding="UTF-8"?>
<!DOCTYPE svg PUBLIC "-//W3C//DTD SVG 1.1//EN" "http://www.w3.org/Graphics/SVG/1.1/DTD/svg11.dtd">
<svg xmlns="http://www.w3.org/2000/svg" version="1.1" width="512px" height="512px" style="shape-rendering:geometricPrecision; text-rendering:geometricPrecision; image-rendering:optimizeQuality; fill-rule:evenodd; clip-rule:evenodd" xmlns:xlink="http://www.w3.org/1999/xlink">
<g><path style="opacity:0.986" fill="#fefefe" d="M 511.5,248.5 C 511.5,253.167 511.5,257.833 511.5,262.5C 509.018,268.48 504.685,272.647 498.5,275C 355.5,275.333 212.5,275.667 69.5,276C 93.3333,299.833 117.167,323.667 141,347.5C 147.512,359.939 145.012,370.105 133.5,378C 125.807,380.486 118.473,379.819 111.5,376C 75.9723,340.139 40.139,304.639 4,269.5C 2.47576,267.102 0.97576,264.769 -0.5,262.5C -0.5,257.833 -0.5,253.167 -0.5,248.5C 0.97576,246.231 2.47576,243.898 4,241.5C 40.139,206.361 75.9723,170.861 111.5,135C 122.516,129.151 132.35,130.651 141,139.5C 145.667,147.5 145.667,155.5 141,163.5C 117.167,187.333 93.3333,211.167 69.5,235C 212.5,235.333 355.5,235.667 498.5,236C 504.685,238.353 509.018,242.52 511.5,248.5 Z"/></g>
</svg>
