<?xml version="1.0" encoding="UTF-8"?>
<svg version="1.1" xmlns="http://www.w3.org/2000/svg" width="128" height="128">
<path d="M0 0 C1.05880371 -0.04496109 2.11760742 -0.08992218 3.20849609 -0.13624573 C8.0561368 -0.25753555 12.90263231 -0.37134586 17.75146484 -0.43261719 C20.29678266 -0.47713839 22.8417622 -0.55201979 25.38525391 -0.65820312 C47.62702496 -1.58217216 47.62702496 -1.58217216 54.0625 3.54370117 C56.92563219 6.35734227 59.25196676 9.40953123 61.41748047 12.78201294 C63.25361901 15.57096858 65.42088074 18.02655294 67.58984375 20.56274414 C68.92317708 22.22941081 70.25651042 23.89607747 71.58984375 25.56274414 C72.44274994 26.45812393 73.29565613 27.35350372 74.17440796 28.27601624 C76.96783007 31.64249866 77.22253776 34.24662067 77.23681641 38.65039062 C77.245578 39.33252625 77.2543396 40.01466187 77.2633667 40.71746826 C77.2852494 42.95691863 77.27084907 45.19436989 77.25390625 47.43383789 C77.25727805 49.00033443 77.2621337 50.56682841 77.2684021 52.13331604 C77.27575858 55.41090894 77.26510995 58.68781879 77.24169922 61.96533203 C77.21323458 66.15309103 77.22960671 70.33924608 77.25956154 74.52694607 C77.27768858 77.76052281 77.27185163 80.9937236 77.25892258 84.22731209 C77.2556022 85.77058162 77.25962727 87.31388599 77.27132034 88.85711479 C77.35137544 102.39309617 77.35137544 102.39309617 74.18505859 106.94189453 C69.86370529 111.30593288 67.42526722 112.71560795 61.27734375 112.75024414 C59.71432858 112.70232689 58.1514486 112.64461469 56.58984375 112.56274414 C56.69296875 113.40836914 56.79609375 114.25399414 56.90234375 115.12524414 C56.49231262 119.6355866 54.73538563 122.3550681 51.58984375 125.56274414 C47.50347748 128.5453886 44.54003603 128.94879555 39.52392578 128.98266602 C38.83218262 128.99113556 38.14043945 128.9996051 37.42773438 129.0083313 C35.15085237 129.03164688 32.8746484 129.03272474 30.59765625 129.03149414 C29.00731133 129.03859965 27.41696895 129.04629922 25.82662964 129.05456543 C22.49616366 129.06799815 19.16593467 129.06958479 15.83544922 129.0637207 C11.57938015 129.05782925 7.32445365 129.08839747 3.06860542 129.12883759 C-0.21552597 129.15476146 -3.49938407 129.15758774 -6.78360367 129.15394592 C-8.3520202 129.15563318 -9.92044989 129.16523768 -11.48876572 129.18309021 C-25.25615325 129.32255393 -25.25615325 129.32255393 -29.73876953 126.33813477 C-35.0355133 120.83517523 -35.85411675 117.028491 -35.81420898 109.64501953 C-35.82107224 108.75659866 -35.82793549 107.8681778 -35.83500671 106.95283508 C-35.85327829 104.02186003 -35.84943665 101.09142007 -35.84375 98.16040039 C-35.84831166 96.11925584 -35.85361719 94.07811283 -35.8596344 92.03697205 C-35.86856624 87.76074989 -35.86614153 83.48471449 -35.85620117 79.20849609 C-35.84471211 73.7328885 -35.86492189 68.25792586 -35.89411831 62.78240299 C-35.91247863 58.56758032 -35.91218815 54.35291225 -35.90648079 50.13805962 C-35.90632755 48.11947157 -35.91237394 46.10087305 -35.92477226 44.08232307 C-35.93967692 41.25776018 -35.92900894 38.43438929 -35.91186523 35.60986328 C-35.92636719 34.36360168 -35.92636719 34.36360168 -35.94116211 33.09216309 C-35.87374328 27.77822709 -34.90386257 24.79409095 -31.41015625 20.56274414 C-26.83066493 16.41939485 -23.29743075 16.17801894 -17.38671875 16.42211914 C-16.73445313 16.46852539 -16.0821875 16.51493164 -15.41015625 16.56274414 C-15.51328125 15.71711914 -15.61640625 14.87149414 -15.72265625 14.00024414 C-15.31262512 9.48990168 -13.55569813 6.77042018 -10.41015625 3.56274414 C-6.84261384 1.09207173 -4.3245454 0.16595814 0 0 Z M-5.41015625 11.56274414 C-7.65009739 15.72924242 -7.70070311 19.75705182 -7.68481445 24.37890625 C-7.68992538 25.15028427 -7.69503632 25.92166229 -7.70030212 26.71641541 C-7.71416367 29.25771923 -7.71324401 31.79875083 -7.7109375 34.34008789 C-7.71482622 36.11218872 -7.71916126 37.88428863 -7.72392273 39.65638733 C-7.73137747 43.36763533 -7.731099 47.07878819 -7.72583008 50.79003906 C-7.72003539 55.539145 -7.73696998 60.28786095 -7.76017475 65.03690243 C-7.77492664 68.69582892 -7.77578183 72.35466179 -7.77266502 76.01361275 C-7.77317747 77.76425512 -7.7784008 79.51490283 -7.78847694 81.26551628 C-7.80085287 83.71632915 -7.79404321 86.16638618 -7.7824707 88.6171875 C-7.79011444 89.3358197 -7.79775818 90.0544519 -7.80563354 90.79486084 C-7.75735396 95.43507269 -7.03350471 98.70901104 -4.41015625 102.56274414 C-0.80715653 104.67719242 2.4474921 104.81908032 6.57006836 104.83740234 C7.75156967 104.84693436 8.93307098 104.85646637 10.15037537 104.86628723 C11.41817337 104.86537582 12.68597137 104.86446442 13.9921875 104.86352539 C15.95787437 104.86995308 15.95787437 104.86995308 17.96327209 104.87651062 C20.73296156 104.88395679 23.50252353 104.88369323 26.2722168 104.87841797 C29.81069147 104.87262469 33.34864246 104.889558 36.8870306 104.91276264 C40.27627103 104.93108983 43.66539785 104.92731375 47.0546875 104.92602539 C48.32046127 104.93523514 49.58623505 104.94444489 50.8903656 104.95393372 C52.07501907 104.94770493 53.25967255 104.94147614 54.48022461 104.93505859 C55.51771347 104.93568802 56.55520233 104.93631744 57.62413025 104.93696594 C61.22607514 104.48246273 63.54907132 103.54610075 66.58984375 101.56274414 C68.65674522 98.02264638 68.83516209 94.90075646 68.81689453 90.85449219 C68.81674347 89.73370773 68.81659241 88.61292328 68.81643677 87.45817566 C68.8061142 86.25905045 68.79579163 85.05992523 68.78515625 83.82446289 C68.78232635 82.58855911 68.77949646 81.35265533 68.77658081 80.07929993 C68.76729593 76.80609417 68.74935008 73.5330877 68.72717285 70.25994873 C68.70665192 66.91493566 68.69773643 63.56991389 68.6875 60.22485352 C68.6654617 53.6707394 68.63200036 47.11675806 68.58984375 40.56274414 C67.36007813 40.53696289 66.1303125 40.51118164 64.86328125 40.48461914 C63.23043443 40.42831408 61.5976233 40.37096729 59.96484375 40.31274414 C59.15660156 40.29856445 58.34835938 40.28438477 57.515625 40.26977539 C52.09631789 40.04947835 48.91150654 39.11913421 44.58984375 35.56274414 C40.45755228 30.95466645 41.03382811 25.12195995 40.90234375 19.25024414 C40.86818359 18.22350586 40.83402344 17.19676758 40.79882812 16.13891602 C40.71660966 13.61363451 40.64737439 11.08868874 40.58984375 8.56274414 C35.00312181 8.48838163 29.41669036 8.4340416 23.82958984 8.39794922 C21.93045022 8.38289723 20.03134516 8.36245098 18.13232422 8.33642578 C15.39672294 8.29988422 12.66158275 8.28298176 9.92578125 8.26977539 C9.08179779 8.25429153 8.23781433 8.23880768 7.36825562 8.22285461 C2.4062408 8.22144983 -1.21799282 8.603262 -5.41015625 11.56274414 Z M48.58984375 10.56274414 C48.15456114 18.43007427 48.54232045 24.75334002 53.58984375 31.06274414 C58.15135276 33.34349865 62.58334452 32.87839033 67.58984375 32.56274414 C63.71876654 27.18624801 59.5760215 22.09910251 55.27734375 17.06274414 C54.73754883 16.4270752 54.19775391 15.79140625 53.64160156 15.13647461 C52.31429038 13.59159213 50.95494705 12.07433597 49.58984375 10.56274414 C49.25984375 10.56274414 48.92984375 10.56274414 48.58984375 10.56274414 Z M-24.41015625 26.56274414 C-27.29566945 31.19109214 -27.84349528 35.16049608 -27.79833984 40.49243164 C-27.8035968 41.26395569 -27.80885376 42.03547974 -27.81427002 42.8303833 C-27.827413 45.36637963 -27.81875245 47.90174205 -27.80859375 50.43774414 C-27.81061613 52.20841593 -27.81352894 53.97908691 -27.81729126 55.74975586 C-27.82170688 59.45507766 -27.81530815 63.16018205 -27.80126953 66.86547852 C-27.78417806 71.60673328 -27.79402334 76.34747851 -27.81198692 81.0887146 C-27.82284538 84.74336563 -27.81936897 88.39789655 -27.81160355 92.05255127 C-27.80960724 93.80039531 -27.81204076 95.54825038 -27.81904221 97.29608154 C-27.82669075 99.7420323 -27.81500548 102.18716644 -27.79833984 104.63305664 C-27.80441254 105.3501178 -27.81048523 106.06717896 -27.81674194 106.80596924 C-27.75848289 111.43881213 -27.02753878 114.71419083 -24.41015625 118.56274414 C-20.80715653 120.67719242 -17.5525079 120.81908032 -13.42993164 120.83740234 C-12.24843033 120.84693436 -11.06692902 120.85646637 -9.84962463 120.86628723 C-8.58182663 120.86537582 -7.31402863 120.86446442 -6.0078125 120.86352539 C-4.04212563 120.86995308 -4.04212563 120.86995308 -2.03672791 120.87651062 C0.73296156 120.88395679 3.50252353 120.88369323 6.2722168 120.87841797 C9.81069147 120.87262469 13.34864246 120.889558 16.8870306 120.91276264 C20.27627103 120.93108983 23.66539785 120.92731375 27.0546875 120.92602539 C28.32046127 120.93523514 29.58623505 120.94444489 30.8903656 120.95393372 C32.07501907 120.94770493 33.25967255 120.94147614 34.48022461 120.93505859 C35.51771347 120.93568802 36.55520233 120.93631744 37.62413025 120.93696594 C41.22658848 120.48239796 43.56847082 119.57939479 46.58984375 117.56274414 C47.55891202 114.97859988 47.55891202 114.97859988 47.58984375 112.56274414 C46.93917938 112.55909851 46.28851501 112.55545288 45.61813354 112.55169678 C38.83685784 112.50983842 32.05625683 112.44046878 25.27539062 112.35522461 C22.74583692 112.32702482 20.21619526 112.30580541 17.68652344 112.29174805 C14.04706829 112.27030585 10.4086696 112.22364554 6.76953125 112.17211914 C5.64118866 112.1708905 4.51284607 112.16966187 3.35031128 112.168396 C-2.6732971 112.05641027 -6.80644689 111.87831633 -11.41015625 107.56274414 C-14.51764506 103.43280276 -14.85264119 99.8474794 -14.8425293 94.83496094 C-14.85272095 94.0734523 -14.8629126 93.31194366 -14.87341309 92.52735901 C-14.90349349 90.02215165 -14.91280124 87.51732697 -14.921875 85.01196289 C-14.9387254 83.27031692 -14.95687613 81.52868308 -14.97627258 79.7870636 C-15.02373966 75.21194246 -15.05357027 70.63687053 -15.07971191 66.06158447 C-15.10953406 61.38934614 -15.15605872 56.71727729 -15.20117188 52.04516602 C-15.28716751 42.88444744 -15.35452943 33.72369394 -15.41015625 24.56274414 C-18.51759906 24.56274414 -21.66530288 25.16361655 -24.41015625 26.56274414 Z " fill="#DCC9A9" transform="translate(43.41015625,-0.562744140625)"/>
<path d="M0 0 C1.36560059 0.00303635 1.36560059 0.00303635 2.75878906 0.00613403 C3.68723633 0.00517731 4.61568359 0.00422058 5.57226562 0.00323486 C7.53938871 0.00255298 9.50651403 0.00440781 11.47363281 0.00857544 C14.49581932 0.01392358 17.51785721 0.00863071 20.54003906 0.00222778 C22.44628939 0.00288856 24.35253963 0.00416972 26.25878906 0.00613403 C27.16918945 0.0041098 28.07958984 0.00208557 29.01757812 0 C35.39383938 0.02399685 35.39383938 0.02399685 36.50878906 1.13894653 C36.75878906 4.07644653 36.75878906 4.07644653 36.50878906 7.13894653 C32.65659747 9.70707426 29.47402024 9.42699138 25.00878906 9.40457153 C24.17669922 9.40648499 23.34460938 9.40839844 22.48730469 9.41036987 C20.72883807 9.41173028 18.97036136 9.40804392 17.21191406 9.39968872 C14.51897644 9.38898702 11.82670592 9.39958874 9.13378906 9.41238403 C7.42545426 9.41106241 5.71711986 9.40849997 4.00878906 9.40457153 C3.20248047 9.40862 2.39617188 9.41266846 1.56542969 9.4168396 C-2.30595786 9.38433573 -4.1958752 9.33583702 -7.49121094 7.13894653 C-7.74121094 4.07644653 -7.74121094 4.07644653 -7.49121094 1.13894653 C-5.54257169 -0.80969271 -2.59312374 0.00975913 0 0 Z " fill="#DCC8A8" transform="translate(59.4912109375,75.86105346679688)"/>
<path d="M0 0 C1.36560059 0.00303635 1.36560059 0.00303635 2.75878906 0.00613403 C3.68723633 0.00517731 4.61568359 0.00422058 5.57226562 0.00323486 C7.53938871 0.00255298 9.50651403 0.00440781 11.47363281 0.00857544 C14.49581932 0.01392358 17.51785721 0.00863071 20.54003906 0.00222778 C22.44628939 0.00288856 24.35253963 0.00416972 26.25878906 0.00613403 C27.16918945 0.0041098 28.07958984 0.00208557 29.01757812 0 C35.39383938 0.02399685 35.39383938 0.02399685 36.50878906 1.13894653 C36.75878906 4.07644653 36.75878906 4.07644653 36.50878906 7.13894653 C32.65659747 9.70707426 29.47402024 9.42699138 25.00878906 9.40457153 C24.17669922 9.40648499 23.34460938 9.40839844 22.48730469 9.41036987 C20.72883807 9.41173028 18.97036136 9.40804392 17.21191406 9.39968872 C14.51897644 9.38898702 11.82670592 9.39958874 9.13378906 9.41238403 C7.42545426 9.41106241 5.71711986 9.40849997 4.00878906 9.40457153 C3.20248047 9.40862 2.39617188 9.41266846 1.56542969 9.4168396 C-2.30595786 9.38433573 -4.1958752 9.33583702 -7.49121094 7.13894653 C-7.74121094 4.07644653 -7.74121094 4.07644653 -7.49121094 1.13894653 C-5.54257169 -0.80969271 -2.59312374 0.00975913 0 0 Z " fill="#DCC8A8" transform="translate(59.4912109375,55.861053466796875)"/>
</svg>
